<svg xmlns="http://www.w3.org/2000/svg" version="1.1" xmlns:xlink="http://www.w3.org/1999/xlink" viewBox="0 0 18.64227311706918 6.1814991462682976"><g transform="matrix(0.7492592883479744,0,0,0.7492592883479744,9.805024318490494,2.356203864061108)"><g transform="matrix(1,0,0,1,0,0)" clip-path="url(#SvgjsClipPath2832)"><g clip-path="url(#SvgjsClipPath2830945f240c-91cb-4762-8ed4-78c3a1f7843b)"><path d=" M -1.4483903668012506 -0.41204845085217545 C -1.4483903668012506 -0.41204845085217545 -1.4355140878213124 -0.6149898043403133 -1.3037654942005092 -0.6383630498799814 C -0.9186901076048546 -0.7067099654800101 -0.9297935655658165 -0.37337296072765414 -0.9297935655658165 -0.37337296072765414 L -0.7653410894633588 -0.2998475416248254 C -0.7732721308640453 -0.29583536773977215 -0.8191788646186033 -0.20850060596280895 -1.010316962375132 -0.2977481483128802 Z" fill="#404142" transform="matrix(1,0,0,1,0,0)" fill-rule="nonzero"></path></g><g clip-path="url(#SvgjsClipPath2830945f240c-91cb-4762-8ed4-78c3a1f7843b)"><path d=" M -1.6908469677386888 0.2668953462312422 C -1.6908469677386888 0.2668953462312422 -1.385315261073444 0.658782097794544 -1.2436295391094268 0.7270823602098622 C -1.1783150805155431 0.7586665662584746 -0.7071179149453837 0.7561472942841401 -0.7071179149453837 0.7561472942841401 C -0.7071179149453837 0.7561472942841401 -0.6057871977554434 0.7663176885509009 -0.5085153076352675 0.7846057369571893 C -0.43522315445598814 0.7983684264466147 -0.41749494426622036 0.7522750799532163 -0.4001399595541315 0.6158145146767104 C -0.38973629936382004 0.5338915223260972 -0.6314931025306088 0.5915548586275532 -0.6314931025306088 0.5915548586275532 C -0.6314931025306088 0.5915548586275532 -1.0208139289348637 0.554605536337299 -1.1557815923006531 0.5100050917546202 C -1.2267330440040425 0.3526095821486548 -1.307509048165155 0.199830122117846 -1.3976317018368514 0.0525706156739052 C -1.4877543555085442 -0.09468889077003573 -1.6419077769779848 -0.0803909607493769 -1.6908469677386888 0.2668953462312422 Z" fill="#404142" transform="matrix(1,0,0,1,0,0)" fill-rule="nonzero"></path></g><g clip-path="url(#SvgjsClipPath2830945f240c-91cb-4762-8ed4-78c3a1f7843b)"><path d=" M -0.541651630686248 0.4226098128781446 L -0.49862262509043553 0.4242665810783304 L -0.5992134050887739 3.0367752198532085 L -0.6422424106845828 3.0351184516530227 Z" fill="#404142" transform="matrix(1,0,0,1,0,0)" fill-rule="nonzero"></path></g><g clip-path="url(#SvgjsClipPath2830945f240c-91cb-4762-8ed4-78c3a1f7843b)"><path d=" M -1.8181967105885697 -0.3775699635604737 L -1.7783308524088897 -0.40563287886475785 L -1.6538604098870158 -0.2288115844505786 L -1.693726268066695 -0.20074866914629286 Z" fill="#404142" transform="matrix(1,0,0,1,0,0)" fill-rule="nonzero"></path></g><g clip-path="url(#SvgjsClipPath2830945f240c-91cb-4762-8ed4-78c3a1f7843b)"><path d=" M -1.260657951528545 0.8320986789918843 C -1.260657951528545 0.8320986789918843 -1.5632971607417758 0.5953337665890572 -1.662341871880927 0.4934432111825997 C -1.6661207798424318 0.3587554669250692 -1.6830092327074215 -0.04246192158021378 -1.6830092327074215 -0.04246192158021378 C -1.6830092327074215 -0.04246192158021378 -1.8462953791921297 -0.23061421551530747 -2.050076490005046 0.054856621724673094 C -2.050076490005046 0.054856621724673094 -1.9562102823686924 0.517422948123498 -1.8621108088087919 0.6435265063944022 C -1.8026673126657036 0.6967953830993234 -1.737480420989967 0.7432836824676867 -1.6677536413072787 0.7821331181675653 L -1.5606845823980198 0.6129220172246972 L -1.6520315180600367 0.7918369805872276 C -1.5526135814432047 0.8529526525572195 -1.4560881422783867 0.9078634509607908 -1.4560881422783867 0.9078634509607908 C -1.4560881422783867 0.9078634509607908 -1.3186012069382613 0.9989771206992573 -1.2407370416574102 1.060092792669249 C -1.1820939884770452 1.106186139162646 -1.1451446661867912 1.0734822566809958 -1.0667206626894217 0.9604882433135775 C -1.019647599317116 0.8925145531912262 -1.260657951528545 0.8320986789918843 -1.260657951528545 0.8320986789918843 Z" fill="#404142" transform="matrix(1,0,0,1,0,0)" fill-rule="nonzero"></path></g><g clip-path="url(#SvgjsClipPath2830945f240c-91cb-4762-8ed4-78c3a1f7843b)"><path d=" M -1.9300378457464307 1.984152422218569 L -2.4210159616335947 2.6623031151619183 L -2.3859794199164472 2.6876824476441126 L -1.941701141923911 2.0740531091545784 L -1.9300378457464307 1.984152422218569 Z" fill="#404142" transform="matrix(1,0,0,1,0,0)" fill-rule="nonzero"></path></g><g clip-path="url(#SvgjsClipPath2830945f240c-91cb-4762-8ed4-78c3a1f7843b)"><path d=" M -1.0725523107781596 0.7998613283573324 L -1.587556816790932 1.5111824356294328 L -1.5630172416335153 1.5510709085564116 L -1.0375157690610148 0.8252406608395266 L -1.0725523107781596 0.7998613283573324 Z" fill="#404142" transform="matrix(1,0,0,1,0,0)" fill-rule="nonzero"></path></g><g clip-path="url(#SvgjsClipPath2830945f240c-91cb-4762-8ed4-78c3a1f7843b)"><path d=" M -1.9282650247274535 0.002838320773114189 C -1.9282650247274535 0.002838320773114189 -1.7375468056333148 -0.28071973589375976 -1.7689910521277978 -0.4043973285597484 C -1.7836472090642097 -0.4742027313038816 -1.817403454847077 -0.5385657166841323 -1.8664962081715242 -0.590310269628769 C -1.8093927100865868 -0.8364058189735782 -2.110492364204389 -0.9899414498539144 -2.2206871864892124 -0.9402091549531431 C -2.2831716615839275 -0.90590376259978 -2.3383661993949207 -0.8597419226217662 -2.3831802288338526 -0.8043084278931553 L -2.1713747702508304 -0.43938721709218775 L -2.4163506431626036 -0.7683388224818102 C -2.449614363860773 -0.7313428470068454 -2.4697685396554574 -0.7084827864989871 -2.5059714109903535 -0.6619229081584896 L -2.17156138298967 -0.4369612514872706 L -2.535456223727021 -0.6239938689893265 C -2.604673196947007 -0.5330922405133643 -2.6686154645444784 -0.4382925716709254 -2.726967546961231 -0.34006258684476853 L -2.4252147482574866 -0.029958868077956335 L -2.753606515430591 -0.2943424658290542 C -2.78159842625654 -0.24652295150138936 -2.795127849822417 -0.22063043398738535 -2.8213469396293904 -0.16917197125234829 L -2.4247948695950976 -0.027812821581300717 L -2.8400082135133564 -0.1315695043761549 C -2.8985559537292946 -0.015277566442068347 -2.9475176195736124 0.10559752128767319 -2.9864059071330766 0.229852717571573 L -2.629788963210472 0.4654046471719413 L -3.004274076876974 0.2892422217072954 C -3.020416078786605 0.34233354590718057 -3.024334946302238 0.3609015134217266 -3.036371467957397 0.41520582042406917 L -2.628995859070403 0.4673174277450456 L -3.046961740886548 0.4667109363438169 C -3.064162748896635 0.5475730921282267 -3.0743399414650083 0.6297710922280022 -3.0773796173174137 0.7123866070262383 C -3.078312681011613 0.7304413895089754 -3.078359334196322 0.7475164551128048 -3.0777061896103834 0.7637051102071466 C -2.921044795354483 0.7273156261334106 -2.655308255246797 0.6343358290065473 -2.655308255246797 0.6343358290065473 C -2.655308255246797 0.6343358290065473 -2.3407258307478287 0.048325175865282954 -2.1417033447753235 -0.18881296201522368 C -2.1312361993367777 -0.2033788288934112 -2.1191711846902948 -0.21672702278893585 -2.105733739363979 -0.22860812857278345 C -2.117257075987328 -0.21694483239530404 -2.1290603317189367 -0.20355536838355803 -2.1417033447753235 -0.18881296201522368 C -2.323538162607858 0.07443814259751091 -2.4744007514036648 0.3577849161996798 -2.5913000858247965 0.6556096812342778 L -3.075326877190177 0.7951960098863393 C -3.0764486427269153 0.864215909843455 -3.0466979645323287 0.9301327373786732 -2.994196988979631 0.9749507305736484 C -3.010362078500365 1.000988800402757 -3.012597881411815 1.033338073777799 -3.0001685966225002 1.0613524286564142 C -2.996724881842618 1.0723823277967597 -2.989310451673952 1.0817417990634843 -2.979361276241878 1.087618171648097 C -2.9756659865815456 1.0893972364296771 -2.9716125096768478 1.09030687494766 -2.9675113673255593 1.09027740317656 C -2.946937312868486 1.0902774031765619 -2.9298155940799457 1.068070487254642 -2.910314562871201 1.026549152862816 L -2.9051360593684006 1.0284619334359215 C -2.9119752130414414 1.0628201544400486 -2.902127343534633 1.0983867130279075 -2.8785903972684572 1.124334228014801 C -2.870556883020206 1.1355291765353157 -2.858653274627657 1.1433429976868497 -2.8451867170161567 1.1462612248284603 C -2.840361354899657 1.1468799044171214 -2.8354582355431726 1.1463688300868045 -2.830864189310213 1.1447683229177423 C -2.807537596955254 1.1369772410711874 -2.796574098548424 1.1055329945767038 -2.790182612243165 1.051461953497911 C -2.6994339436513677 1.0549177057858983 -2.608743400128244 1.04323451859003 -2.5218334937917257 1.016891943627861 L -2.403287751443826 0.7509687907813363 L -2.4039875492144755 0.7509687907813363 L -2.4400971141799506 0.7988816114784207 L -2.4012816645013 0.7268490942863077 L -2.393957114501843 0.7302547767701328 L -2.124908198279754 0.8381169398194608 L -2.0549284212148793 0.6640539076667615 L -2.2959854266110185 0.5323519672306656 C -2.2141631093244722 0.38176980610300837 -2.1187326629627092 0.23899111667646644 -2.010887814848717 0.1058018994278973 Z M -2.96685822273962 1.0588798098667889 C -2.9688521047157925 1.0560931922677068 -2.9704241233244693 1.053027755980788 -2.971523541210612 1.0497824388483568 C -2.9795753168586456 1.0321300882630648 -2.9790417661103286 1.0117518919402406 -2.9700772924846035 0.994545068151814 C -2.959950149101984 1.0017405963943702 -2.949316679036837 1.0081955181054707 -2.9382598205124415 1.013859486621719 C -2.944253576674745 1.0308416058646372 -2.9540332919195755 1.0462370792924691 -2.96685822273962 1.0588798098667902 Z M -2.8418276877170427 1.1090786366146594 C -2.845200375339507 1.106721500976894 -2.848203518203941 1.103875590723164 -2.8507384459966367 1.1006344101821632 C -2.8661076492217212 1.0840924443946696 -2.8732027808391507 1.0615045616126113 -2.870052864466543 1.039145512734493 C -2.855733812212555 1.042688630281304 -2.8412349228971427 1.0454607057895142 -2.826618749501611 1.0474497796128586 C -2.827012031657387 1.0688886822292352 -2.8322598122941827 1.0899595582815378 -2.841967647271173 1.1090786366146594 Z" fill="#404142" transform="matrix(1,0,0,1,0,0)" fill-rule="nonzero"></path></g><g clip-path="url(#SvgjsClipPath2830945f240c-91cb-4762-8ed4-78c3a1f7843b)"><path d=" M -1.0027591464521253 -0.227721718063295 C -0.9701019171551843 -0.26037894736023603 -0.9561059617422094 -0.36908086773434257 -0.9561059617422094 -0.36908086773434257 C -0.9561059617422094 -0.36908086773434257 -1.3471063027960213 -0.5207503712262821 -1.3996377887793887 -0.47568339479650246 C -1.417732990373887 -0.4568913469793877 -1.431687016438886 -0.4345140477772015 -1.4405992849546951 -0.4099957107249387 L -1.261591015222745 -0.3633425260150229 L -1.4538954425970205 -0.37598553907140986 C -1.4590344993301514 -0.36242129289767444 -1.463105719383031 -0.3484761943257454 -1.46607192380631 -0.33427759194074425 C -1.4686845021500643 -0.32452707633637135 -1.4778751795379188 -0.27591445786863844 -1.4778751795379188 -0.27591445786863844 L -1.4688711148889038 -0.2712491393976467 C -1.4739433252026517 -0.25632835103840457 -1.479846403107154 -0.2417030472064059 -1.4865526718939632 -0.2274417989550337 C -1.4932589406807724 -0.21318055070366215 -1.7919444190050786 -0.31790232410756314 -1.9368958638987888 -0.033597816485331 C -1.9904537199457728 0.07137184911198147 -2.1247215855409136 0.2922280255287282 -2.257030017378238 0.5052931200989161 L -2.041912182680811 0.6739910360099768 L -2.2794701992237076 0.5414493382491024 L -2.2794701992237076 0.5414493382491024 C -2.3214580654626324 0.6092364156326113 -2.3618130702367104 0.673571157347586 -2.3966163460303083 0.7289484875982573 L -2.394330339979522 0.730021510846586 L -2.125281423757433 0.8378836738959139 L -2.4210159616335947 0.7725692153020303 L -2.4404703396576295 0.7984150796313239 C -2.4834845759601727 0.8666686888619328 -2.510916648569604 0.9097762315338951 -2.510916648569604 0.9097762315338951 C -2.5804730477819593 1.0186893650706392 -2.6005173436510987 1.1520127611139315 -2.566060712896726 1.276563569723261 C -2.637486738687609 1.4653690082442932 -2.816961540266658 1.8270711493002794 -2.907422065419187 1.9240631203121952 C -2.9978825905717157 2.0210550913241105 -3.352913326214183 2.586538343193012 -3.3922886141093516 2.7152544798076734 C -3.431663902004521 2.8439706164223333 -3.4143555704771433 2.8850720721517686 -3.4143555704771433 2.8850720721517686 L -3.228769201701094 2.9092384218315064 C -3.131509159954976 2.921893971606934 -3.033060533853156 2.9225207335111305 -2.9356472421686863 2.9111045492199046 L -2.8788703163767178 2.9044797969910947 C -2.8620546165315135 2.901995680051179 -2.846543839756028 2.8939858820972777 -2.834783056825847 2.8817130428526556 L -2.806791145999898 2.8522748833006975 C -2.801088317651133 2.8449052021834884 -2.7994267780355635 2.83518082295973 -2.8023590934524547 2.8263357126019844 L -2.9816006291079553 2.7803356724780057 L -3.0581585052169293 2.75075755337192 C -3.1063220165200063 2.75734426234527 -3.155330729070564 2.753784615259886 -3.202036926862313 2.740307239996899 C -3.1534791337347636 2.7457779397364384 -3.1044419280780726 2.745433379364529 -3.055965805535563 2.739280869933281 C -3.0016614985332195 2.648680385226622 -2.7721744829451396 2.2736354333436024 -2.662586152061545 2.1737976180643797 C -2.557336567355973 2.0779253234855 -2.351036184568721 1.7959068219140546 -2.233376852730311 1.631500998996307 L -2.3511761441228503 1.448107329901624 L -2.1884964890393714 1.6011764289348611 L -1.8911290896983637 1.8251117155424628 C -1.8911290896983637 1.8251117155424628 -1.9342366323703262 2.1571424311229395 -1.9647011619859 2.331532035568608 C -1.9926930728118508 2.4927187887413713 -2.05520834032314 2.8503154495428826 -2.0164395438291978 2.894262749539625 C -1.9776707473352575 2.9382100495363663 -1.4785749773085692 2.8413113848938703 -1.4785749773085692 2.8413113848938703 C -1.3586762926040823 2.8188712030484004 -1.3651144320940505 2.742779858786526 -1.3957189212637555 2.7386743785320538 C -1.423746639531653 2.725539134270193 -1.4543896132070095 2.718935182629592 -1.4853396890915063 2.7193599600621488 C -1.5548580385026414 2.715082046776386 -1.6239053589646346 2.70507993775579 -1.6917800314328888 2.689455268663092 C -1.732969987241396 2.716646223348393 -1.7823326795482997 2.72866941168509 -1.8314130132696684 2.7234654403166223 C -1.7816268472937518 2.7199560823649342 -1.7339153201588253 2.702135138443571 -1.6940193842989641 2.672146937135714 C -1.6630883228362912 2.5572401431951888 -1.4688244617041963 1.8203064375173437 -1.5264877980056548 1.6543144063194601 C -1.5550862002328332 1.5718782289370363 -1.7562547327019935 1.299330323861703 -1.8732142667697556 1.1317987375683924 L -1.9846687250417459 0.9855876566875139 L -1.8722345498908464 1.0478230050905433 C -1.728076209137205 0.90921639331738 -1.614475704368557 0.7025894382371594 -1.5130050276244882 0.5332850309248716 L -1.6422810024556664 0.32600493125871166 L -1.4935039964157424 0.5006744548126396 C -1.4621997094753878 0.44851619430695266 -1.4357007005601554 0.40480216023376014 -1.4155931779501802 0.37573722615948224 C -1.3456134008853065 0.2742198962307034 -1.3345565961090564 0.10897431598817864 -1.3549440378272903 0.0019052570789195311 C -1.3244795082117138 -0.030751972218022283 -1.278712734011287 -0.06317593559141477 -1.2468486088544122 -0.03131181043454112 C -1.2058871126791058 0.009649685740765523 -1.0953657181013128 -0.010784409162178044 -1.043207457595626 -0.0983524368626919 C -1.0357429480420395 -0.11090214354965988 -1.0040654356240069 -0.11701371074665912 -0.9985603598282351 -0.12928349832536734 C -0.9887631910391512 -0.15051069736838263 -1.0185745760687883 -0.21162636933837364 -1.0027591464521253 -0.227721718063295 Z" fill="#404142" transform="matrix(1,0,0,1,0,0)" fill-rule="nonzero"></path></g><g clip-path="url(#SvgjsClipPath2830945f240c-91cb-4762-8ed4-78c3a1f7843b)"><path d=" M -7.703696025891595 2.530367908802274 C -7.703696025891595 2.530367908802274 -7.674677745002027 2.5350332272732645 -7.635862295323378 2.5433841473363406 L -7.644866359972392 2.5896174533838674 L -7.625738554241326 2.5456701533871264 C -7.617107715069991 2.547629587144943 -7.608103650420978 2.5497756336415986 -7.598912973033123 2.5521082928770955 L -7.612908928446099 2.595915633319706 L -7.59037544023121 2.554254339373751 C -7.582444398830524 2.556353732685696 -7.574420051060418 2.558546432367064 -7.566442356475021 2.560879091602559 L -7.585476855836667 2.6022138132555446 L -7.557484945010718 2.5635383231310227 C -7.5516066437372675 2.565311144150001 -7.545774995648529 2.5671772715383963 -7.540036653929208 2.569136705296214 C -7.548807452654673 2.5834125798174488 -7.560284136093314 2.601793934593155 -7.560284136093314 2.601793934593155 L -7.5316390806814235 2.5717959368246777 C -7.478967635143928 2.5904572107086445 -7.435253601070736 2.6146235603883823 -7.437866179414492 2.6439684135709194 C -7.442366102823389 2.6744612389584073 -7.459029438935591 2.701829506148749 -7.48405283227731 2.7198264919092425 C -7.559557141159537 2.683528012988685 -7.640020003910772 2.658609365575495 -7.722823831622661 2.645881194144025 C -7.715779200731465 2.5906904766321963 -7.703696025891595 2.530367908802274 -7.703696025891595 2.530367908802274 Z" fill="#404142" transform="matrix(1,0,0,1,0,0)" fill-rule="nonzero"></path></g><g clip-path="url(#SvgjsClipPath2830945f240c-91cb-4762-8ed4-78c3a1f7843b)"><path d=" M -7.538543752018491 0.6572891958838261 L -7.537937260617262 0.6559829067119489 L -7.517969697561417 0.5785852732781973 C -7.4448641571209775 0.5920680436593622 -7.374417848209004 0.6034980739132925 -7.32039346031492 0.611802340791658 L -7.286056716368422 0.6323763952487309 L -7.263803147261791 0.6202932204088629 C -7.242902520511748 0.623325677415008 -7.2284866864363835 0.6253317643575333 -7.222748344717065 0.6261248684976031 L -7.091886161605748 0.6774433716785113 L -7.1073283657447295 0.8224881229416416 C -7.109917159044476 0.8249644014881468 -7.112676469183434 0.8272560319425366 -7.115585979438384 0.829346141094 C -7.11996633246126 0.8324929816006059 -7.124530939920902 0.8353750716348485 -7.129255362558391 0.8379769802653336 L -7.116845615425554 0.9122021971388115 L -7.133640761921124 1.06979665508891 L -7.170356818287829 0.8495003168886837 C -7.181418045516083 0.8491597029053364 -7.191792891519206 0.8440573196251095 -7.198815260960878 0.8355043614757081 L -7.315448222735671 0.7847923496960287 L -7.553379464756245 0.7029626637148352 C -7.549406365866769 0.687439383490815 -7.544451149932896 0.6721841746881057 -7.538543752018491 0.6572891958838276 Z" fill="#404142" transform="matrix(1,0,0,1,0,0)" fill-rule="nonzero"></path></g><g clip-path="url(#SvgjsClipPath2830945f240c-91cb-4762-8ed4-78c3a1f7843b)"><path d=" M -6.78248224060958 2.9098915664174463 L -6.824376800479085 2.916889544123934 L -7.0856812880393285 1.357600151564387 L -7.068932794728469 1.2000056936142878 L -6.78248224060958 2.9098915664174463 Z" fill="#404142" transform="matrix(1,0,0,1,0,0)" fill-rule="nonzero"></path></g><g clip-path="url(#SvgjsClipPath2830945f240c-91cb-4762-8ed4-78c3a1f7843b)"><path d=" M -7.310223779049988 2.9088319961957265 L -7.046219114283139 0.429468639872008 L -7.004188929966004 0.4339440487274424 L -7.268193594732851 2.9133074050511625 Z" fill="#404142" transform="matrix(1,0,0,1,0,0)" fill-rule="nonzero"></path></g><g clip-path="url(#SvgjsClipPath2830945f240c-91cb-4762-8ed4-78c3a1f7843b)"><path d=" M -8.730252702248603 -0.10628347826338103 C -8.72717359205775 -0.09270740151279566 -8.723627950019797 -0.07852483336098093 -8.72092206530662 -0.0635025078843876 C -8.718216180593446 -0.04848018240779406 -8.714390619447233 -0.03303797826881216 -8.711591428364637 -0.01684932317447041 C -8.708792237282042 -0.000660668080129323 -8.70533990161351 0.01580790612247074 -8.703100548747434 0.0333495035733995 C -8.700861195881357 0.050891101024328034 -8.697595472951663 0.06833939210583706 -8.696009264671527 0.08662744051212412 C -8.69442305639139 0.10491548891841096 -8.691577212124086 0.12339015006353882 -8.690784107984015 0.1426112621640241 C -8.689991003843948 0.1618323742645078 -8.687938263716712 0.18082022044144486 -8.68821818282497 0.2003679048349012 C -8.68821818282497 0.21013397150084323 -8.68812487645555 0.21996224241306517 -8.687938263716712 0.22985271757156855 C -8.687938263716712 0.23969653954536096 -8.68873136785678 0.2495870147038628 -8.68905794014975 0.25952414304707516 C -8.689384512442718 0.2694612713902873 -8.690037657028657 0.27939839973349967 -8.690550842060468 0.28942883444613154 C -8.691064027092278 0.29945926915876364 -8.692976807665382 0.3092564379478471 -8.69423644365255 0.31924021947576864 C -8.69549607963972 0.32922400100369154 -8.696289183779788 0.3392544357163234 -8.698435230276443 0.3490516045054055 L -8.704826716581701 0.3784897640573637 L -8.707999133141977 0.39323217042569647 C -8.708745584097334 0.39733765068017024 -8.710844977409282 0.40256280736768013 -8.71224457295058 0.4072281258386734 C -8.715323683141433 0.4169319882583358 -8.71840279333229 0.4266825038627087 -8.721575209892563 0.4363397130976603 C -8.724634436263694 0.44587331686434384 -8.728248449112478 0.45521990181809735 -8.732398748745261 0.4643316239236097 C -8.736270963076187 0.47366226086559315 -8.740049871037689 0.4825263659604768 -8.743875432183902 0.4915770837942015 L -8.757544815303909 0.5178428267858843 C -8.7622101337749 0.5264736659572193 -8.766082348105824 0.5355243837909425 -8.771540770716886 0.5436420379304687 L -8.786703055747607 0.5683682258267244 C -8.789268980906652 0.5724270528964861 -8.791648293326858 0.5766258395203794 -8.794307524855325 0.5805447070360121 L -8.802611791733689 0.5921613500287819 C -8.80805466328318 0.5999057786906277 -8.81349753483267 0.6075724520446233 -8.81894040638216 0.6151613700907697 C -8.82435217580851 0.6227191860137762 -8.83046374300551 0.629670510535554 -8.836062125170699 0.6368551009808818 C -8.841660507335888 0.6440396914262081 -8.847305542685788 0.6511309755021164 -8.853043884405109 0.657942340469764 L -8.870678788225456 0.6776766376020582 C -8.888640264338774 0.6977841602120327 -8.90692831274506 0.7159789022489 -8.92465652293483 0.7328207019291795 C -8.892696957836897 0.4231058989161014 -8.834244211574456 0.1167011293892628 -8.749940346196198 -0.18302796711117442 L -8.748680710209024 -0.17836264864020468 C -8.7457415595723 -0.1680056416346023 -8.742755755750865 -0.15676222411951357 -8.739816605114141 -0.14467904927964403 C -8.736877454477417 -0.13259587443977516 -8.73319185288533 -0.11985955501396706 -8.730252702248603 -0.10628347826338103 Z" fill="#404142" transform="matrix(1,0,0,1,0,0)" fill-rule="nonzero"></path></g><g clip-path="url(#SvgjsClipPath2830945f240c-91cb-4762-8ed4-78c3a1f7843b)"><path d=" M -7.831945630659157 0.4834127764699676 L -7.833205266646324 0.48289959143815864 C -7.836114508692361 0.48169899385999426 -7.838858213172155 0.48013116272868483 -7.84136957397056 0.47823427296716536 C -7.8364707824844935 0.48115109016229596 -7.831317884392629 0.48361823530930903 -7.825974023016286 0.4856054761513324 Z" fill="#404142" transform="matrix(1,0,0,1,0,0)" fill-rule="nonzero"></path></g><g clip-path="url(#SvgjsClipPath2830945f240c-91cb-4762-8ed4-78c3a1f7843b)"><path d=" M -7.799195094992795 0.4949361130933161 C -7.766911091173533 0.5049665478059482 -7.722170687036722 0.5161166589516193 -7.678503306148242 0.5261937468489604 L -7.662174691499771 0.5308590653199508 C -7.713259928757129 0.5195223414354431 -7.7607528707918245 0.5073458602261538 -7.799195094992795 0.4949361130933161 Z" fill="#404142" transform="matrix(1,0,0,1,0,0)" fill-rule="nonzero"></path></g><g clip-path="url(#SvgjsClipPath2830945f240c-91cb-4762-8ed4-78c3a1f7843b)"><path d=" M -6.934664929133328 0.5275000360208391 C -6.949080763208693 0.5058529583154374 -6.947307942189716 0.5093519471686809 -7.010569660656364 0.48219979366750865 C -7.014161955879026 0.48066023857208173 -7.01803417020995 0.4788874175531046 -7.022186303649133 0.4771612497188382 C -7.031565148448275 0.47305314812601007 -7.041377803343105 0.4700170156705126 -7.051437850462248 0.4681105318851151 C -7.085942110144469 0.4623093003406631 -7.121368918810839 0.46580367192275585 -7.154074856824066 0.47823427296716536 L -7.442484844700772 0.38268855068125696 L -7.445890527184595 0.38268855068125696 L -7.626951537043784 0.32264590195959375 L -7.57805899946779 0.06306758223361819 L -7.558557968259044 -0.040175915529427675 L -7.52711372176456 -0.2044417788930436 C -7.525605942025066 -0.23403033876019752 -7.53564125344564 -0.26304911428469546 -7.555105632590508 -0.28538505436475003 C -7.553239505202113 -0.2847319097788108 -7.5515133373678465 -0.28393880563874274 -7.549740516348869 -0.28319235468338444 C -7.50430031444141 -0.26075217283791474 -7.524314530681965 -0.17421051520101805 -7.524314530681965 -0.17421051520101805 L -7.568215177493997 0.05350367936808542 L -7.618553963795996 0.31429498189652083 L -7.480460537054643 0.36211449622418557 L -7.455734349158388 0.2660089357217561 C -7.435265207862775 0.18674973295456287 -7.427874533029363 0.104680149729798 -7.433854005529437 0.02303914975250909 L -7.440338798204116 -0.06536863527278203 L -7.449669435146098 -0.19599755246054995 C -7.4517331025432565 -0.22892684689818654 -7.461979641933532 -0.26082100471862146 -7.479480820175736 -0.2887907368485746 L -7.50467353991909 -0.3290524352532328 L -7.4806004966087745 -0.3998719696428862 C -7.425219920005721 -0.37635676579285127 -7.361193134066683 -0.3875546031054419 -7.317081084200516 -0.42847037187006487 C -7.2884550132374155 -0.4567138541811201 -7.265702061365774 -0.490343826947499 -7.250133764141785 -0.5274217766397986 L -7.227926848219864 -0.5227564581688076 C -7.223683715016324 -0.5218096775148658 -7.219253377652645 -0.5231349816883842 -7.216227195559913 -0.5262563267400076 C -7.213201013467178 -0.5293776717916315 -7.212013473585334 -0.5338469076701001 -7.213091135482111 -0.5380587027536615 C -7.221115483252216 -0.569409642878724 -7.236417727837069 -0.6291257193074175 -7.239216918919665 -0.6484401377773239 C -7.229852183623697 -0.6732326762003018 -7.223188895074246 -0.6989629805755262 -7.21934266223324 -0.7251846266251386 C -7.188835557013282 -0.7171198125089662 -7.157923602770634 -0.710672684520827 -7.126736090584055 -0.7058702081552328 C -7.067108739332771 -0.6988472215811423 -7.008394698806614 -0.7248867107697154 -6.9735736851814 -0.7737972450928715 L -7.19722905268074 -0.8450366581449141 C -7.19722905268074 -0.8450366581449141 -7.2718741482166065 -1.0773695180003002 -7.444490931643299 -1.0760632288284218 C -7.716199079393855 -1.074197101440025 -7.712793396910031 -0.8054747575109051 -7.712793396910031 -0.8054747575109051 C -7.708501303916718 -0.8063145148356838 -7.703975944999856 -0.8071076189757518 -7.699357279713575 -0.8076674571922707 C -7.696371475892141 -0.8081806422240798 -7.6931990593318655 -0.8086471740711797 -7.689700070478622 -0.8090670527335683 L -7.685734549778278 -0.8093936250265379 C -7.685067797278352 -0.8094657186970107 -7.684395215335679 -0.8094657186970107 -7.683728462835751 -0.8093936250265379 C -7.682422173663874 -0.8093936250265379 -7.681115884491995 -0.8097201973195076 -7.67966963576599 -0.8098601568736379 L -7.677383629715203 -0.8098601568736379 L -7.672951577167762 -0.8101867291666075 C -7.672111819842983 -0.8101867291666075 -7.671318715702913 -0.8101867291666075 -7.670572264747556 -0.8101867291666075 L -7.665906946276564 -0.8101867291666075 C -7.665068478733421 -0.8102525502445004 -7.664226141845376 -0.8102525502445004 -7.66338767430223 -0.8101867291666075 L -7.657975904875878 -0.8105133014595771 L -7.656249737041611 -0.8105133014595771 C -7.649718291182222 -0.8105133014595771 -7.642720313475736 -0.8109331801219665 -7.635115844368018 -0.8109331801219665 L -7.615101628127464 -0.8109331801219665 C -7.613468766662617 -0.8109331801219665 -7.61169594564364 -0.8109331801219665 -7.610063084178793 -0.8109331801219665 L -7.603764904242954 -0.8109331801219665 C -7.601898776854558 -0.8109331801219665 -7.600032649466161 -0.8109331801219665 -7.598073215708345 -0.8109331801219665 C -7.5961137819505264 -0.8109331801219665 -7.594014388638581 -0.8109331801219665 -7.591775035772506 -0.8109331801219665 C -7.589535682906429 -0.8109331801219665 -7.587529595963904 -0.8109331801219665 -7.585290243097827 -0.8109331801219665 C -7.5830508902317515 -0.8109331801219665 -7.581138109658644 -0.8109331801219665 -7.579038716346699 -0.8109331801219665 C -7.576939323034754 -0.8109331801219665 -7.574373397875707 -0.8109331801219665 -7.571760819531951 -0.8109331801219665 L -7.565415986411404 -0.8106066078289969 C -7.562570142144098 -0.8106066078289969 -7.559584338322663 -0.8106066078289969 -7.556598534501229 -0.8101867291666075 C -7.554732407112832 -0.8101867291666075 -7.552959586093856 -0.8101867291666075 -7.551093458705458 -0.8101867291666075 C -7.546148221126208 -0.8101867291666075 -7.541109677177538 -0.8096268909500886 -7.5359311736747365 -0.809300318657119 L -7.570127958067106 -0.8083206017782101 C -7.570343575206194 -0.8082778604422632 -7.570565485513956 -0.8082778604422632 -7.570781102653045 -0.8083206017782101 C -7.612901849481402 -0.8093941317555104 -7.654970794404909 -0.8046849215028797 -7.695811637675621 -0.7943246463652369 C -7.72010859916718 -0.7236056122750834 -7.714271967838242 -0.6460087795782321 -7.6796696357659915 -0.5797199966996188 C -7.690633134172821 -0.5689431110316279 -7.7004303029619035 -0.5590059826884163 -7.709341061241497 -0.5497686521158524 C -7.738734928857234 -0.5469776068772109 -7.767435530961196 -0.5391831607863055 -7.794203204228836 -0.5267219788691532 L -7.870761080337807 -0.5667037581655524 C -7.824351144182962 -0.6279628300897893 -7.78585386675224 -0.6948314724022717 -7.756180858690255 -0.7657262441380567 C -7.686201081625378 -0.9457142307489158 -7.974004578100856 -1.0418197912513438 -8.261061623620972 -1.0571220358361963 C -8.49759327010025 -1.0697650488925838 -8.46437620258679 -0.8597324113285387 -8.549145039204708 -0.6340243037019615 C -8.505904410977411 -0.6534315352770337 -8.460914394698394 -0.6686781519049242 -8.41478386724015 -0.6795578119788387 L -8.41478386724015 -0.6903346976468304 L -8.395749367878503 -0.6903346976468304 L -8.389917719789764 -0.6848296218510608 C -8.337693245639068 -0.6956816059654325 -8.284266271077849 -0.6996031396237713 -8.231016972667787 -0.6964929180285395 C -8.283707368273188 -0.6926444296352745 -8.336136664943423 -0.6858065029453654 -8.38805159240137 -0.6760121699408854 L -8.39234368539468 -0.6717667301322837 L -8.381660106096108 -0.6176490358687804 L -8.416416728704997 -0.6173224635758108 L -8.4027939987697 -0.6678945158013607 L -8.414550601316602 -0.6678945158013607 L -8.414550601316602 -0.6700872154827264 C -8.462891755928169 -0.6582236059727133 -8.509815284395964 -0.6411903651389028 -8.554510155446351 -0.6192818973336264 C -8.572512620833884 -0.5733860994104742 -8.595594033683945 -0.5296487781115444 -8.623323602893477 -0.4888862460694091 C -8.678174510000144 -0.3959627501257833 -8.719845595280688 -0.2958673587680306 -8.747141155113598 -0.1914721935436915 C -8.745928172311139 -0.18783324513631772 -8.744715189508682 -0.18419429672894405 -8.743502206706223 -0.18036873558273092 C -8.74000321785298 -0.17010503494654972 -8.736457575815024 -0.15900157698558903 -8.732958586961782 -0.14701170851514067 C -8.729459598108539 -0.13502184004469153 -8.725354117854065 -0.1223788269883046 -8.721761822631402 -0.1089893629765587 C -8.718169527408739 -0.09559989896481202 -8.713924087600136 -0.08127737125886847 -8.71051840511631 -0.0663016989669849 C -8.702960589193305 -0.036536967122057895 -8.695682692378558 -0.003973044194535591 -8.68961777836627 0.03078357841435131 C -8.686771934098964 0.0481385631264406 -8.68313298569159 0.06582012013149896 -8.681080245564353 0.08429478127662593 C -8.67902750543712 0.10276944242175223 -8.675901742061553 0.1216173290445588 -8.674782065628515 0.14069848159091536 C -8.673662389195478 0.15977963413727037 -8.671283076775273 0.17942062490014643 -8.671283076775273 0.19934153477128014 C -8.671283076775273 0.20923200992978175 -8.670723238558754 0.21921579145770465 -8.670489972635202 0.22933953253975647 C -8.670256706711655 0.23946327362180964 -8.671143117221142 0.24944705514973098 -8.67151634269882 0.2595707962317826 C -8.6718895681765 0.2696945373138344 -8.6723561000236 0.2799115847653071 -8.672822631870698 0.2901286322167784 L -8.676461580278072 0.3208264277559032 C -8.67786117581937 0.33104347520737454 -8.678421014035889 0.34140048221297614 -8.680613713717255 0.35147757011031877 L -8.687098506391933 0.38194209972589355 L -8.690410882506338 0.39715103794132633 C -8.691717171678215 0.40293603284535573 -8.693489992697193 0.40713481946924923 -8.69507620097733 0.41217336341791966 C -8.698248617537605 0.421877225837582 -8.701327727728458 0.4315344350725352 -8.704406837919313 0.44123829749219756 C -8.707625719957184 0.451044531509764 -8.711410991668165 0.4606556946606859 -8.715743561803821 0.47002331245821494 C -8.719802388873584 0.4793539494001986 -8.723767909573928 0.48905781181986074 -8.727826736643689 0.49852840831597467 C -8.737390639509224 0.5164432312445815 -8.746488010527656 0.5346846264661593 -8.756751711163838 0.55161973251586 C -8.76202352103606 0.5600639589483558 -8.76743529046241 0.5684148790114305 -8.77270710033463 0.5766724927050855 C -8.775319678678386 0.5808712793289772 -8.77788560383743 0.58502341276816 -8.780638141735317 0.5889889334685035 C -8.7833906796332 0.592954454168847 -8.786423136639344 0.5969199748691887 -8.78931563409136 0.6007455360154035 C -8.795007322625972 0.608583271046669 -8.80074566434529 0.6162810465238058 -8.80634404651048 0.6240721283703623 C -8.811942428675671 0.6318632102169175 -8.81833391498093 0.638674575184565 -8.824165563069668 0.6458125124451837 C -8.829997211158407 0.652950449705801 -8.836015471985988 0.659808467858159 -8.842080385998276 0.6668064455646445 C -8.848145300010566 0.6738044232711315 -8.854396826761695 0.6799159904681322 -8.860461740773983 0.6864007831428101 C -8.881138037838065 0.7081626052526051 -8.902939354761587 0.728827139222257 -8.925776199367867 0.7483095592528684 C -8.936604698935511 0.8147783686421879 -8.936163095123302 0.882596096945462 -8.92446991019599 0.9489182535055112 C -8.887613894275155 1.025429476429775 -8.80097893026884 1.0627053710129988 -8.714997110848463 1.0820664426676143 L -8.720502186644232 1.25216395411997 L -8.659153248750693 1.251604115903452 L -8.66069280384612 1.0920968773802446 C -8.647909831235602 1.0939630047686415 -8.635406777733344 1.0955958662334884 -8.623370256078186 1.097042114959497 L -8.625143077097162 1.2086365327856172 L -8.578816464680216 1.208216654123229 L -8.577510175508339 1.1013342079528088 C -8.54905173283529 1.1036202140035964 -8.525398568187363 1.1049265031754736 -8.510422895895479 1.1066993241944503 C -8.429438814510121 1.1063393724325046 -8.348606855372664 1.0996475718786685 -8.26866609272869 1.0866851079538957 C -8.194860754517604 1.0768879391648136 -8.134071654840582 1.0673240362992815 -8.134071654840582 1.0673240362992815 C -8.134071654840582 1.0673240362992815 -8.102207529683708 1.6142393206536352 -8.077108116309773 1.7036268225578355 C -8.096235922040838 1.7464077929368296 -8.147087893374648 2.5700697689904097 -8.15221974369274 2.6514329231245046 C -8.147554425221747 2.652645905926962 -8.142889106750756 2.6538588887294194 -8.137943869171504 2.654978565162457 L -8.137943869171504 2.654978565162457 L -8.137943869171504 2.654978565162457 C -8.110332567252287 2.6616485397062855 -8.082046276169415 2.665123667885809 -8.053641564400687 2.6653355721680603 C -8.080576068307819 2.674581498352555 -8.109686621394287 2.675411368787105 -8.137104111846726 2.6677148845882646 C -8.14007649266276 2.6793236942885916 -8.142012423099944 2.6911734620452323 -8.142889106750756 2.703124651783093 L -8.141816083502427 2.8272687762961795 C -8.141816083502427 2.8491491199251295 -8.136544273630207 2.876534539349852 -8.115083808663645 2.881059898266713 C -8.109811998791423 2.882132921515042 -8.104540188919204 2.8831126383939507 -8.099361685416403 2.883905742534019 C -8.066218813997898 2.8885684999318118 -8.032678205509441 2.889741248480359 -7.999290604213631 2.8874047313872624 C -7.963281896830566 2.8834606611223492 -7.926959700258747 2.8832886662182218 -7.890915256132493 2.886891546355453 C -7.8862499376615025 2.887731303680232 -7.871554184477879 2.889830696992177 -7.850886823651386 2.892583234890063 C -7.800827956457645 2.8990680275647427 -7.715312668884368 2.908771889984405 -7.650651354876424 2.910498057818671 C -7.619178400006888 2.9114732091891735 -7.587734688434153 2.9077785730793773 -7.557344985456588 2.8995345594118396 C -7.501395042834284 2.8907521032295493 -7.456953370054772 2.847840328505421 -7.446217099477568 2.792232234579031 C -7.4420183128536745 2.751457351142564 -7.51778308482258 2.7182402836291018 -7.593734469530325 2.6953802231212443 L -7.633669595642014 2.7760902326693984 L -7.601245632268622 2.6931875234398777 C -7.6099231246246655 2.6906215982808326 -7.618600616980712 2.6881956326759164 -7.627184802967336 2.6859096266251306 L -7.658535743092401 2.7616743985940353 L -7.637075278125838 2.6833903546507942 C -7.6456594641124624 2.6811976549694294 -7.653917077806117 2.679098261657481 -7.661801466022093 2.677232134269086 L -7.68554793703944 2.7472119113339617 L -7.667633114110834 2.675739232358368 L -7.689326845000944 2.670793994779117 L -7.713586501050102 2.7418467950923198 L -7.701410019840814 2.668274722804781 C -7.7243633867180925 2.6636094043337892 -7.740225469519465 2.660810213251194 -7.7427447414938 2.660390334588805 C -7.783194363057338 2.693172389586787 -7.834664089238235 2.7092159857138842 -7.886576509954471 2.7052240450950356 C -7.847947673014662 2.700931952101722 -7.77572854308371 2.6908082110196707 -7.741205186398372 2.6445749049721434 C -7.725389756781711 2.5237431565734583 -7.623125975897572 1.7483205735099339 -7.591541769848959 1.582748420974438 C -7.55734498545659 1.4030870066565484 -7.595833862842272 1.1073991219650972 -7.597513377491828 0.9280642799401777 C -7.598046581688907 0.881484800625302 -7.595208880042049 0.8349277834961106 -7.589022497874623 0.7887578703963598 L -7.978156711540039 0.7237699840954519 L -7.587389636409776 0.777234533773016 C -7.581825636705206 0.7335737025955187 -7.571001250608426 0.6907461026120183 -7.5551522857752245 0.6496847267761028 L -7.5347181908722805 0.5703743127692453 C -7.616967755515865 0.5510132411146313 -7.824667733844414 0.5017474780609577 -7.85466573161289 0.48887119908101995 C -7.872907126834467 0.4809868108650437 -7.872907126834467 0.4422180143711034 -7.875239786069963 0.39827071437436246 C -7.875239786069963 0.3950049914446674 -7.875566358362933 0.3915993089608436 -7.875799624286483 0.3881936264770198 C -7.878412202630239 0.3447595115120863 -7.8862499376615025 0.2987594713881092 -7.886576509954472 0.27240042202700665 C -7.883124161676926 0.13228358117407657 -7.871894562665147 -0.007533492790882557 -7.852939563778624 -0.14640521711390364 C -7.834278289894655 -0.24517000914481002 -7.7736291497717644 -0.3010138712425806 -7.732294428118778 -0.30684551933132 C -7.738410112569266 -0.30358504760491145 -7.7443581163269455 -0.3000193594883961 -7.750115944677967 -0.2961619400327471 C -7.805063355212944 -0.25718793099715476 -7.839700904516039 -0.19568232220499748 -7.844541990530837 -0.12849039418530828 C -7.857185003587225 -0.0033665527933115502 -7.889748926514747 0.18772489177850749 -7.869314831611804 0.32969053285078376 C -7.867308744669277 0.3475120494099724 -7.866562293713919 0.36561348507742 -7.865256004542042 0.38567435450268395 C -7.863963017967067 0.40901430456375354 -7.860985009037764 0.4322303008764734 -7.856345246262448 0.4551409465357532 C -7.854500001742196 0.46447807992387347 -7.849244503199581 0.47279374217484493 -7.8416028398941116 0.4784675388907078 L -7.678736572071793 0.5264270127725028 C -7.605211152968965 0.543362118822202 -7.5348114972417 0.5573114210504684 -7.531639080681426 0.5579645656364061 C -7.371338738018153 0.5881025229590111 -7.218362945354335 0.6088631901549251 -7.218362945354335 0.6088631901549251 L -7.072571743135846 0.6662932605328324 L -7.051251237723414 0.6746441805959071 C -7.044757599958951 0.6765467236020777 -7.038079497208435 0.6777509716390566 -7.03133032785228 0.6782364758185717 C -7.011411433796819 0.6796389212070229 -6.991577990730307 0.6745126886060155 -6.974833321168569 0.6636340290043676 L -6.93569129919695 0.5790984583099987 C -6.9253007788582766 0.5635756724530743 -6.9248999267845806 0.5434237454755246 -6.934664929133326 0.5275000360208391 Z M -7.85303287014804 0.856031762748072 L -7.855972020784763 1.0558473528606451 L -7.851026783205512 1.0520684448991426 C -7.848087632568788 1.0498757452177765 -7.844541990530834 1.0474031264281507 -7.840483163461071 1.0443706694220056 L -7.827047046264616 1.0340603156011148 C -7.822101808685364 1.0304213671937412 -7.816969958367273 1.0262692337545585 -7.811464882571502 1.0217438748376968 C -7.805959806775732 1.0172185159208338 -7.800128158686993 1.0128331165581024 -7.794389816967673 1.0077479194247196 C -7.788651475248352 1.0026627222913387 -7.782539908051353 0.997717484712088 -7.776474994039065 0.9923523684704478 C -7.770410080026776 0.9869872522288059 -7.764391819199196 0.9816687891718763 -7.758560171110458 0.9759304474525559 C -7.74633703671646 0.9650602554151453 -7.735233578755499 0.953303652868247 -7.724036814425118 0.9426200735696755 C -7.712840050094738 0.9319364942711057 -7.703462759968046 0.9212062617878238 -7.695111839904969 0.9122021971388115 C -7.679389716657729 0.8951271315349805 -7.668612830989737 0.8830439566951125 -7.66711992907902 0.8815977079691051 C -7.672507250265589 0.8944755948501961 -7.679099081694834 0.906815753212997 -7.686807573026606 0.9184537238899408 C -7.694539847366682 0.9305087487165853 -7.703016061123937 0.9420700549810759 -7.712186905508802 0.9530703869446953 C -7.717458715381021 0.9590419945875657 -7.722403952960272 0.9655267872622435 -7.728375560603142 0.9713117821662731 C -7.734347168246011 0.9770967770703027 -7.739992203595911 0.9833016506367231 -7.74615042397762 0.9890399923560422 C -7.75230864435933 0.9947783340753609 -7.758700130664588 1.0002367566864225 -7.765091616969846 1.005508566558643 C -7.771483103275105 1.0107803764308634 -7.7781545086886235 1.015539001271275 -7.784545994993882 1.020250972926977 C -7.790653947068455 1.024754280179446 -7.797008678662737 1.0289128912962924 -7.803580494355527 1.032707373244524 L -7.8125845590045415 1.0381657958555839 L -7.821402010914716 1.0428311143265758 C -7.827000393079906 1.0458169181480104 -7.832178896582706 1.0483361901223462 -7.8367975618689885 1.0504355834342927 C -7.841416227155271 1.0525349767462395 -7.845661666963873 1.0540278786569561 -7.849067349447697 1.0553808210135438 C -7.852473031931521 1.0567337633701315 -7.854059240211659 1.05710698884781 -7.855785408045925 1.0578067866184586 L -7.858304680020261 1.2366750967962798 L -7.870761080337807 0.8563583350410386 Z M -8.110651756116198 0.5978530385633931 C -8.088196154426578 0.4651737336946453 -8.072732602605916 0.33140544553803797 -8.064325143699254 0.19710218190520612 C -8.054432145589491 0.3324103940011722 -8.070149075555411 0.4683705434546077 -8.110651756116201 0.5978530385633916 Z M -8.521199781563467 -0.05757755342622772 C -8.528011146531114 -0.04064244737652767 -8.531836707677328 -0.0309385849568653 -8.531836707677328 -0.0309385849568653 C -8.531836707677328 -0.0309385849568653 -8.528757597486473 -0.0409690196694974 -8.522832643028314 -0.05823069801216696 C -8.519333654175071 -0.06667492444466205 -8.515554746213567 -0.07712523781968339 -8.510189629971926 -0.08878853399716213 C -8.507437092074042 -0.09452687571648188 -8.504591247806736 -0.10068509609819087 -8.501512137615881 -0.10716988877286948 C -8.498433027425028 -0.11365468144754898 -8.494560813094104 -0.12013947412222614 -8.490828558317311 -0.12704414545929332 C -8.487096303540516 -0.1339488167963614 -8.482710904177784 -0.14104010087226948 -8.478418811184474 -0.148178038132886 C -8.474126718191162 -0.15531597539350317 -8.46908817424249 -0.1627804849470893 -8.464142936663238 -0.17024499450067765 C -8.459197699083987 -0.17770950405426533 -8.453785929657636 -0.18531397316198095 -8.448187547492445 -0.19291844226969668 C -8.442589165327256 -0.2005229113774123 -8.436617557684386 -0.2082206868545491 -8.430366030933257 -0.2159184623316852 C -8.41814289653926 -0.23117405373182787 -8.404613472973383 -0.24633633876255 -8.390430904821567 -0.26154527697798435 C -8.376248336669754 -0.2767542151934179 -8.361412623931999 -0.29131000882291136 -8.346157032531858 -0.3056325365288549 C -8.330901441131715 -0.31995506423479925 -8.314806092406794 -0.333624447354805 -8.298757396866582 -0.3465007263347426 C -8.28270870132637 -0.3593770053146803 -8.26666000578616 -0.37192671200164673 -8.250937882538917 -0.3835900081791255 C -8.219353676490305 -0.40691660053408374 -8.188375961842919 -0.42655759129695836 -8.161643687004137 -0.44307281868426973 C -8.134911412165355 -0.4595880460715812 -8.111724779364527 -0.4715312613573197 -8.095536124270184 -0.4800221409745239 C -8.08237992618199 -0.48683350594217145 -8.073562474271814 -0.49079902664251407 -8.07071663000451 -0.492105315814392 C -8.073469167902394 -0.49047245434954445 -8.08191339433489 -0.48585378906326326 -8.094696366945406 -0.4784825858790961 C -8.110511796562069 -0.4691519489371132 -8.132718712483989 -0.45571583174065666 -8.158984455475672 -0.4387807256909567 C -8.172094000379158 -0.43019653970433214 -8.186136608976843 -0.42086590276234925 -8.200972321714596 -0.41050889575674765 C -8.215808034452351 -0.40015188875114605 -8.230877013113654 -0.3889551244207664 -8.246505829991476 -0.3774317877974165 C -8.262134646869297 -0.36590845117406656 -8.27804338285538 -0.35321878493296976 -8.293672199733201 -0.34010924002948284 C -8.309301016611023 -0.32699969512599525 -8.324976486673554 -0.3131903524518608 -8.340325384443117 -0.29910109066946644 C -8.35567428221268 -0.28501182888707133 -8.370556648135144 -0.27064264799641646 -8.38464590991754 -0.25580693525866316 C -8.398735171699933 -0.24097122252091063 -8.412357901635229 -0.22608885659844669 -8.424674342398648 -0.21101987793714339 C -8.430925869149775 -0.2035553683835566 -8.436850823607935 -0.19609085882996968 -8.442589165327254 -0.18862634927638355 C -8.448327507046574 -0.18116183972279665 -8.453925889211764 -0.1739772492774696 -8.458964433160435 -0.16660604609330243 C -8.464002977109107 -0.15923484290913448 -8.469321440166036 -0.15233017157206719 -8.47370683952877 -0.14519223431145079 C -8.4780922388915 -0.1380542970508335 -8.48303747647075 -0.1314295448220254 -8.486676424878125 -0.12461817985437706 C -8.4903153732855 -0.11780681488672873 -8.494374200355262 -0.11141532858147118 -8.497873189208505 -0.1052571081997622 C -8.50137217806175 -0.09909888781805243 -8.504357981883185 -0.0930806269904737 -8.507203826150489 -0.08743559164057368 C -8.512942167869813 -0.07605221457135558 -8.517140954493705 -0.06578851393517349 -8.521106475194047 -0.05757755342622772 Z M -8.32339027839342 0.6592019764569335 C -8.352996538731844 0.6362962727492574 -8.379142886688376 0.6092385737221235 -8.401021177750719 0.5788651923864563 C -8.425551724536417 0.5450747882482871 -8.445549504067007 0.5082161357801414 -8.460503988255866 0.4692302083181543 C -8.47635652557467 0.42756124094967984 -8.48755898160743 0.38426906798508487 -8.493907668508164 0.34014084622581264 C -8.500439634387437 0.2945202897611974 -8.50191035940605 0.24831761976150224 -8.498293067870897 0.20237399177742965 C -8.496217846601372 0.17930270192528308 -8.49288496268285 0.1563618700935807 -8.488309286342975 0.1336538506997207 C -8.48361501249808 0.11118489932993492 -8.477379854663006 0.08906567691000822 -8.469648012459006 0.06745298159634872 C -8.454462364875637 0.025552564824091295 -8.434734945315306 -0.014559333473045388 -8.410818346539806 -0.05216578399987615 C -8.388791953351168 -0.08725946131886508 -8.364200891688062 -0.12067648423835631 -8.337246274252264 -0.1521435588332294 C -8.311726982215939 -0.18223486297112612 -8.285927771071357 -0.209293710102877 -8.26171476820691 -0.23336675341319502 C -8.22227418020263 -0.27211649675989513 -8.180487324701769 -0.3084034417492696 -8.136590926814911 -0.34202202060259324 C -8.106919501339407 -0.3648820811104515 -8.088211574270728 -0.37719852187386804 -8.086018874589364 -0.3787380769692966 C -8.08811826790131 -0.3771052155044491 -8.105893131275787 -0.3634358323844433 -8.134398227133547 -0.33936278907412687 C -8.176366166567352 -0.3037643878863341 -8.2164785123463 -0.26603449121615164 -8.254576830946291 -0.22632212252200123 C -8.308659003221663 -0.17082207496824786 -8.356614396825051 -0.10966565324964184 -8.397615495266896 -0.04390817030622585 C -8.420612762753034 -0.007134665374276317 -8.439496389170566 0.03205629086094941 -8.453925889211765 0.07295805739211536 C -8.461223771275302 0.09402943490202631 -8.467023215909327 0.1155902734204528 -8.471280873923856 0.13747941184593082 C -8.475566325830565 0.15943105316930528 -8.47857274659027 0.18161314209066282 -8.48028493857287 0.20391354687285368 C -8.484190252702842 0.24852237102690355 -8.483157624728513 0.2934260420318937 -8.477205828382015 0.337808186990316 C -8.471400334617224 0.38081285930552 -8.460903006052353 0.4230524824428459 -8.445901541441662 0.46377178570709 C -8.43162478018034 0.5016730848972129 -8.412944305307084 0.5377657039943224 -8.39024429208273 0.5713073764634482 C -8.36981517336972 0.6013836863291391 -8.345144795862488 0.6283482518083809 -8.316998792088162 0.6513642414256648 C -8.293131905378461 0.6707766000243116 -8.266907166646973 0.6870945635745076 -8.23894801406847 0.6999302067086886 C -8.217159325884731 0.7095929228127253 -8.194468874890553 0.7170782713156272 -8.171207589869672 0.7222770821847386 C -8.156213424903806 0.725699262956482 -8.141022225569419 0.7281921777190488 -8.125720734777504 0.7297415917383254 L -8.109298813759612 0.7314211063878828 L -8.125720734777504 0.7307213086172359 C -8.131085851019144 0.7303947363242662 -8.137663950063244 0.7303947363242662 -8.14536172554038 0.7293217130759375 C -8.154250576617406 0.7286033147771427 -8.163095696935576 0.727419812762738 -8.17186073445561 0.7257760710379835 C -8.195765820898785 0.7214777039421802 -8.219200823673491 0.7148846564948963 -8.241840511520486 0.7060884270904013 C -8.271030672638569 0.6943224953932055 -8.298444831382193 0.6785585690595277 -8.323296972024 0.6592486296416424 Z M -7.887976105495766 -0.46803227250407475 C -7.907197217596253 -0.4869268123115912 -7.905097824284304 -0.5070343349215657 -7.89124182842546 -0.5333467310979592 L -7.836517642760728 -0.5047483288707797 C -7.854937934297538 -0.49443653067481164 -7.872163926006998 -0.4821233104428899 -7.8878827991263485 -0.46803227250407475 Z" fill="#404142" transform="matrix(1,0,0,1,0,0)" fill-rule="nonzero"></path></g><g clip-path="url(#SvgjsClipPath2830945f240c-91cb-4762-8ed4-78c3a1f7843b)"><path d=" M -4.130341996220233 2.873268816420162 L -4.173402885707486 2.8738753078213906 L -4.208252814685794 -0.25888604544951865 L -4.165191925198542 -0.25949253685074747 L -4.130341996220233 2.873268816420162 Z" fill="#404142" transform="matrix(1,0,0,1,0,0)" fill-rule="nonzero"></path></g><g clip-path="url(#SvgjsClipPath2830945f240c-91cb-4762-8ed4-78c3a1f7843b)"><path d=" M -4.819829413048093 2.7539766231169045 C -4.8414886277248375 2.731845781635605 -4.867911704951004 2.7149484152210452 -4.897087086927716 2.7045709005091023 C -4.960785198360169 2.6763731048395836 -5.022046718157452 2.642964823156959 -5.080247490098847 2.604686432045173 C -5.128332961737957 2.6157719302516527 -5.178775593957076 2.6098190730332465 -5.222959582126483 2.587844632364892 C -5.175102874579393 2.601968110877963 -5.124185330130304 2.601968110877963 -5.076328622583214 2.587844632364892 C -5.023890442969268 2.514319213262064 -4.71462648152723 2.1180004091513203 -4.587963085039807 1.863973818405824 L -4.977283911444063 1.7473408566310322 C -5.015212950613225 1.8188135356066257 -5.136464577674299 2.0463877706215983 -5.2111096732101645 2.174030883987931 C -5.293779116516137 2.315296727289559 -5.477032826056689 2.6287128221707805 -5.4558989333830965 2.6834370078355123 C -5.434765040709504 2.738161193500246 -4.933383264632031 2.8213904750227363 -4.933383264632031 2.8213904750227363 C -4.813018048080446 2.8420578358492277 -4.792537299992793 2.768485763561689 -4.819829413048093 2.7539766231169045 Z" fill="#404142" transform="matrix(1,0,0,1,0,0)" fill-rule="nonzero"></path></g><g clip-path="url(#SvgjsClipPath2830945f240c-91cb-4762-8ed4-78c3a1f7843b)"><path d=" M -5.1605674379185 -0.5667141860437813 L -5.127382410635848 -0.6024292784841974 L -4.9689714503857765 -0.4552401861826679 L -5.002156477668429 -0.41952509374225344 Z" fill="#404142" transform="matrix(1,0,0,1,0,0)" fill-rule="nonzero"></path></g><g clip-path="url(#SvgjsClipPath2830945f240c-91cb-4762-8ed4-78c3a1f7843b)"><path d=" M -4.320360417543726 0.38670072456630944 C -4.320360417543726 0.38670072456630944 -4.476695239506656 0.37340456692398405 -4.6411477156091125 0.34387310100260615 C -4.642080779303311 0.3737311392169522 -4.643573681214027 0.40139647774993326 -4.6458130340801045 0.42514294876728 L -4.647212629621401 0.43913890418025536 C -4.642177402453158 0.48199674028355566 -4.634873706010899 0.5245575129417472 -4.625332285992453 0.5666420579924518 C -4.545843569530124 0.5692336224265029 -4.466275302261191 0.5654112252733876 -4.387401043971877 0.5552120277385293 C -4.308526785682563 0.545012830203671 -4.285650448119547 0.56015726531778 -4.187538800674593 0.5733134634059769 C -4.113640156094085 0.5832972449338982 -4.098337911509232 0.5363641411157227 -4.08807421087305 0.3991571248838579 C -4.081869337306631 0.31662764113201436 -4.320360417543726 0.38670072456630944 -4.320360417543726 0.38670072456630944 Z" fill="#404142" transform="matrix(1,0,0,1,0,0)" fill-rule="nonzero"></path></g><g clip-path="url(#SvgjsClipPath2830945f240c-91cb-4762-8ed4-78c3a1f7843b)"><path d=" M -4.4235106089373515 1.1281597891610158 C -4.431113975226783 1.0999797970713416 -4.446316844314136 1.0744318758767797 -4.467457908934092 1.054307797765218 C -4.486239047484875 1.034074713383934 -4.502456497097684 1.0116053194276389 -4.5157439551088565 0.9874071308911985 C -4.523764185646647 0.9722697583849893 -4.532707360552687 0.9576397213871295 -4.5425228831323485 0.9435997904485847 C -4.55233840571201 0.9295598595100412 -4.64837895923915 0.5885690548061187 -4.662561527390964 0.43885898507199794 L -4.661021972295539 0.42374335322598333 C -4.645766380895395 0.25705152425745115 -4.664147735671103 -0.09583316488835891 -4.664147735671103 -0.09583316488835891 C -4.664147735671103 -0.09583316488835891 -4.821695540436493 -0.32499360818347056 -5.022537500612683 -0.03756333718567273 C -4.989913341517198 0.13003017036735498 -4.9460695337639375 0.29524323904299177 -4.89130209202369 0.4569604207394409 L -4.894287895845123 0.4573802994018332 C -4.869841627057125 0.5790518051252957 -4.723443933437406 0.9353888299396402 -4.723443933437406 0.9353888299396402 C -4.723443933437406 0.9353888299396402 -4.694845531210228 1.0333605178304648 -4.675297846816772 1.1302125292882517 C -4.6733060984907615 1.1412480008771153 -4.669490555709533 1.1518747605239996 -4.664007776116973 1.161656775782737 L -4.664007776116973 1.1616567757827356 C -4.6378827712062405 1.2147833719816425 -4.607029422617847 1.2654509408932508 -4.571821083130176 1.3130463601664166 C -4.550127352240065 1.3284419111206889 -4.445344299381592 1.3251295350062833 -4.435920356070189 1.309174145835493 C -4.435634385548371 1.2581794733114942 -4.441112011220316 1.2073158063577463 -4.452248970718663 1.1575512955282452 C -4.449462531044029 1.1610079937762032 -4.446876802175713 1.1646217835198742 -4.444504542056813 1.1683748343809666 C -4.43856401157613 1.1780016918775646 -4.427045025427668 1.1826357667648772 -4.416092752568473 1.1798048646348938 C -4.420346160120784 1.1628929721715755 -4.422832107405405 1.145585150510728 -4.4235106089373515 1.1281597891610158 Z" fill="#404142" transform="matrix(1,0,0,1,0,0)" fill-rule="nonzero"></path></g><g clip-path="url(#SvgjsClipPath2830945f240c-91cb-4762-8ed4-78c3a1f7843b)"><path d=" M -5.249365284672296 -0.05431183049653354 L -5.189415942320053 -0.17173789641139414 C -5.189415942320053 -0.17173789641139414 -5.061632869399591 -0.488699633330569 -5.11803656971388 -0.6031398954239937 C -5.146866090166355 -0.668392284533804 -5.193232407025856 -0.7243677823516483 -5.251977863016053 -0.7648398336285651 C -5.340992139442573 -1.4196639342169566 -6.083944105947998 -0.8677567590986415 -5.638172926044742 -0.6427017960580035 C -5.960406472836138 -0.7565822199349101 -6.083804146393867 -0.2107866120135935 -6.09882647187046 -0.15503605628524342 L -5.6816536941943845 -0.09905223463334412 L -6.109463397984321 -0.11444778558761703 C -6.142614303755186 0.011455575623599668 -6.165456558577173 0.13984964319882187 -6.177763660399638 0.2694612713902844 L -6.18289551071773 0.3312767411309261 C -6.186842512471259 0.3744856832710646 -6.188617568040436 0.4178655500756747 -6.18821397377466 0.4612525137327539 L -5.77887893112985 0.42780218029574324 L -6.1878407482969795 0.5138306529008303 C -6.187938966194237 0.5965054316782741 -6.18086784904754 0.6790330174498636 -6.16670685562336 0.7604860404623199 C -6.163861011356083 0.7783542102060583 -6.16036202250284 0.795056050332209 -6.156349848617786 0.8108714799488705 C -6.0106519527687166 0.7428044834571024 -5.769968172850255 0.5967800153150631 -5.769968172850255 0.5967800153150631 C -5.769968172850255 0.5967800153150631 -5.583682006303558 -0.041715470624858586 -5.438124070008618 -0.3149631734708408 C -5.430909830187709 -0.33137707694042584 -5.421880632370943 -0.3469317088812671 -5.4112051824309955 -0.36133643907249824 C -5.42006928752588 -0.3473404836595221 -5.429026698990183 -0.33199158588996047 -5.438124070008618 -0.3149631734708408 C -5.561437354719994 -0.01980468455311679 -5.650307571155795 0.288587646569888 -5.702974199606817 0.6041045653145181 L -6.147579049892322 0.8409627840867666 C -6.134327557111325 0.9087008522377842 -6.0915694916798095 0.9670057502601992 -6.030946088117529 1.0000034907628725 C -6.0413616652929 1.0288242182495564 -6.036837248725018 1.0609318539706671 -6.01886291327766 1.0857520442596988 C -6.013213831312979 1.095840329948956 -6.004019857048819 1.103471494844524 -5.993063702133078 1.1071658560415503 C -5.989074418500721 1.1081003207607152 -5.984923157740857 1.1081003207607152 -5.9809338741085005 1.1071658560415503 C -5.960779698313816 1.102827109863528 -5.948649870289236 1.0776343901201724 -5.938199556914217 1.0329406391680727 L -5.932741134303157 1.0337337433081406 C -5.932280974026615 1.0687789214040984 -5.915253364349827 1.101536304654266 -5.886834400548596 1.122048221964015 C -5.876634066521892 1.1313629836462464 -5.863325294616548 1.1365367687244499 -5.8495118527806635 1.1365573624087966 C -5.844661649202461 1.1361454681111676 -5.839969955911504 1.1346294447688527 -5.835795816475949 1.1321253098613546 C -5.8146619238023565 1.1196689095438077 -5.810369830809044 1.0866384547691865 -5.815361721573005 1.0321475350280043 C -5.725877216018376 1.016713028405042 -5.639586636622138 0.9864884640522944 -5.560028841655631 0.9427133799390921 L -5.4991464356091875 0.6581289532086017 L -5.499892886564547 0.6581289532086017 L -5.525318872231451 0.712479913395655 L -5.501992279876492 0.6339626035288641 L -5.494154544845227 0.6357820777325518 L -5.208590401235826 0.6855610258180329 L -5.176399703785982 0.5007677611820518 L -5.439523665549913 0.42192387902229256 C -5.39079898895055 0.2577098291349773 -5.327147390912639 0.09829974258664409 -5.249365284672297 -0.05431183049653199 Z M -5.986718869012529 1.076654673241268 C -5.989297617193703 1.0743615515187113 -5.991529215459531 1.0717056352727603 -5.993343621241339 1.068770285025292 C -6.004888840451116 1.0531691133007137 -6.008590041852002 1.0331137661749854 -6.0033740559539694 1.014419324838237 C -5.991977037078522 1.0193681150209244 -5.980236332075632 1.023484378129507 -5.968244207867405 1.0267357656016554 C -5.970556294056475 1.04455640019063 -5.976872340886551 1.0616224863224057 -5.986718869012529 1.0766546732412698 Z M -5.853990558512818 1.0999812655962256 C -5.857775671638365 1.0983607574431233 -5.861310263474051 1.0962085837476163 -5.864487525072548 1.0935897792909675 C -5.88286963580023 1.0805949699826503 -5.894473438911598 1.06005726536076 -5.896118384305872 1.0376059576390673 C -5.8813714053931925 1.0380952981668061 -5.8666089389543465 1.0378149981711324 -5.851891165200871 1.0367662003142888 C -5.847835171739535 1.0576813023041418 -5.84855280497412 1.0792421941521 -5.853990558512818 1.0998413060420984 Z" fill="#404142" transform="matrix(1,0,0,1,0,0)" fill-rule="nonzero"></path></g><g clip-path="url(#SvgjsClipPath2830945f240c-91cb-4762-8ed4-78c3a1f7843b)"><path d=" M -4.331650488243524 -0.5891905931957289 C -4.316164809058506 -0.6195209684654454 -4.3099966499296265 -0.6537542516307322 -4.313922278053755 -0.6875821597489444 L -4.613015845229033 -0.6684077008331683 L -4.803734064323173 -0.6408823218543174 C -4.805974875774241 -0.6265453812691428 -4.807066922791945 -0.6120523572770381 -4.806999787252866 -0.5975415132588058 C -4.807559625469384 -0.5875110785461723 -4.806486602221057 -0.5380587027536601 -4.806486602221057 -0.5380587027536601 L -4.796736086616684 -0.535399471225196 C -4.7985872873301645 -0.5197086048562758 -4.80131296346185 -0.5041333126752187 -4.804900393940921 -0.4887462865152773 C -4.8084878244199905 -0.4733592603553367 -5.122421969076615 -0.5139390062586338 -5.205324678306136 -0.20579472124963427 C -5.235929167475842 -0.09200760374214734 -5.321537761418539 0.15189524592129722 -5.406773129883557 0.38777374781463814 L -5.161377378309396 0.5081856175509325 L -5.42123561714363 0.4278021802957448 L -5.42123561714363 0.4278021802957448 C -5.4483877706448025 0.5028205013092908 -5.474420247712935 0.5741065675460433 -5.497000389112536 0.6355021586242942 L -5.494527770322909 0.6360619968408139 L -5.208963626713508 0.685840944926295 L -5.5117427954808695 0.6834616325060892 L -5.525458831785585 0.7127598325039171 C -5.553450742611535 0.7884779512881115 -5.5712722591707236 0.8363441188004854 -5.5712722591707236 0.8363441188004854 C -5.61675527421761 0.9573021719717381 -5.60873391593003 1.091884623071596 -5.549205302802933 1.2065837926583853 C -5.579949751526767 1.4060728104779905 -5.607801702798588 1.7318519993073376 -5.651842309164747 1.8571158002534647 C -5.7051202461034745 2.009251835592503 -5.853663986219848 2.582852741600929 -5.865513895136168 2.7168873412725203 C -5.877363804052488 2.85092194094411 -5.851891165200872 2.8876379973108155 -5.851891165200872 2.8876379973108155 L -5.675028941965578 2.900374316736623 C -5.577057254074753 2.892583234890066 -5.436164636250804 2.9369504135491966 -5.34323149230865 2.9056461266088434 L -5.289067144860438 2.8873580782025563 C -5.278943403778385 2.8835791702410525 -5.263547852824113 2.8415913040021277 -5.25384399040445 2.8113133871253906 C -5.2512655239963415 2.8033121884411565 -5.252107857252833 2.794601149149317 -5.256171603922602 2.787242233984276 C -5.260235350592373 2.779883318819235 -5.267159282310766 2.7745306652326462 -5.275304455371014 2.772451284262031 L -5.356341037212138 2.759388392543254 C -5.4234161031480745 2.7651253966955345 -5.490950885499658 2.762193192307389 -5.557276303757747 2.750664247002499 C -5.529719301904342 2.753516252521131 -5.501874904963401 2.750037697487822 -5.475866496438943 2.7404938527357383 C -5.441529752492444 2.6406093842718064 -5.375702108866752 2.233140469015393 -5.329608762373354 2.0977995801719245 C -5.283515415879956 1.9624586913284552 -5.236302392953521 1.7746329696863317 -5.155265811112397 1.5895131327573808 L -5.303576285305222 1.329841506661984 L -5.14201630665478 1.5196266620619268 L -4.969399523228088 1.727093374466926 C -4.969399523228088 1.727093374466926 -4.9740648416990805 1.7380102196890475 -4.981809270360926 1.7567181467577222 L -4.588196350963358 1.864020471590532 C -4.546208484724433 1.8186269228677818 -4.506413318166874 1.6977018680996787 -4.538557362432007 1.6342535368941915 C -4.584044217524175 1.5443995031428916 -4.7525555206963945 1.0611658159175748 -4.901659099029288 0.9217661000043436 L -5.041012161757809 0.8018207621151476 L -4.918081020047178 0.839423228991341 C -4.888586435183218 0.7928215300176793 -4.862786127557553 0.7439818908544651 -4.8409166525369764 0.6933521076645894 L -4.952884295840777 0.34690555800874967 L -5.010780898065784 0.00983629847960188 C -5.010780898065784 0.00983629847960188 -4.928438027052781 0.3084166806230699 -4.902732122277617 0.406061796220925 C -4.877026217502452 0.50370691181878 -4.8286935181429795 0.6656401159469008 -4.8286468649582694 0.6657334223163218 C -4.764871961459814 0.5207353242379005 -4.698017947770502 0.33589540641721016 -4.655516896499768 0.21436386024787657 L -4.655516896499768 -0.04689397412765728 L -4.635129454781534 0.14480396184539046 C -4.629111193953955 0.12754228350272157 -4.612502660197224 0.0911061462442766 -4.610869798732377 0.08723393191335282 C -4.563283550328261 -0.026646491963553842 -4.58684340860677 -0.19053912984949162 -4.629064540769243 -0.29107674289936225 C -4.606017867522545 -0.32933235436149344 -4.567995521983963 -0.3703871569062197 -4.5302064423689306 -0.34594088811822377 C -4.481640477085907 -0.31435668206960987 -4.377743834736922 -0.3572776120027329 -4.34485333951643 -0.45375639798284106 C -4.3401880210454395 -0.4677523533958172 -4.310469942385223 -0.48016210052865416 -4.307530791748497 -0.4932716454321411 C -4.302212328691567 -0.5164116250482591 -4.343966929006943 -0.5701094406493739 -4.331650488243524 -0.5891905931957289 Z M -4.969026297750408 0.9410338652895409 L -5.103667388823226 1.0076546130553017 L -5.051509128317541 1.1102916194171182 L -5.205884516522655 0.9050176066934836 L -5.126154223853407 0.9770967770703041 Z" fill="#404142" transform="matrix(1,0,0,1,0,0)" fill-rule="nonzero"></path></g><g clip-path="url(#SvgjsClipPath2830945f240c-91cb-4762-8ed4-78c3a1f7843b)"><path d=" M -4.28952266245047 -0.7791157081498004 C -4.28952266245047 -0.7791157081498004 -4.348445634739096 -1.118191054621475 -4.7324946512711294 -0.9619495390279635 C -4.863776713044835 -0.9085316425351094 -4.856452163045379 -0.6820304307684641 -4.856452163045379 -0.6820304307684641 L -4.344806686331722 -0.6563711791780092 C -4.1271229264752485 -0.6055192078442002 -4.28952266245047 -0.7791157081498004 -4.28952266245047 -0.7791157081498004 Z M -4.6853282815294035 -0.8024423005047585 L -4.736040293309083 -0.8939758489056151 C -4.738812551878051 -0.899000062057543 -4.738875787018962 -0.9050808049318275 -4.736208612750621 -0.9101615840838405 C -4.733541438482283 -0.9152423632358535 -4.72850055920403 -0.9186436819048844 -4.722790788851467 -0.91921522183368 L -4.718638655412284 -0.9196351004960692 C -4.710653713478546 -0.9204411295847785 -4.703189854785819 -0.915562409449689 -4.700723832483678 -0.90792515113388 L -4.667693377709056 -0.8061279020968414 Z M -4.564030001283622 -0.8024423005047585 L -4.581711558288678 -0.8060345957274224 L -4.59220852484841 -0.9101645039999562 C -4.592770001975256 -0.9158698913449387 -4.59043084937416 -0.9214762721033132 -4.585980853311306 -0.9250907203822132 C -4.581530857248452 -0.9287051686611131 -4.575563999008066 -0.9298452313077405 -4.57009491529591 -0.9281259801132734 L -4.566129394595567 -0.9268663441261069 C -4.558484741893301 -0.9244453045325319 -4.553554725045265 -0.9170308697453279 -4.55427948567925 -0.9090448275669184 Z M -4.414179971995369 -0.8959819358481413 L -4.466244926131636 -0.8024423005047585 L -4.48094067931526 -0.8128926138797798 L -4.448283450018319 -0.9123105504966127 C -4.446500880224709 -0.917773807954819 -4.442089730934613 -0.9219739524445792 -4.436545724792047 -0.9234868083580594 C -4.4310017186494814 -0.9249996642715387 -4.425068567523479 -0.9236222865054937 -4.42075807103947 -0.9198217132349094 L -4.417678960848614 -0.9170691753370241 C -4.411719881453966 -0.911695798793879 -4.410320517323494 -0.9028914661396619 -4.414319931549496 -0.8959352826634324 Z" fill="#404142" transform="matrix(1,0,0,1,0,0)" fill-rule="nonzero"></path></g><g clip-path="url(#SvgjsClipPath2830945f240c-91cb-4762-8ed4-78c3a1f7843b)"><path d=" M -4.966367066221942 1.2380746923375798 C -5.0891115951937325 1.2380746923375798 -5.210083303146545 1.2363485245033132 -5.328022554093216 1.2325229633571002 C -6.666968955267826 1.189228807946297 -7.653963730990825 1.0858453506291212 -7.663760899779907 1.0848189805655033 L -7.660635136404342 1.0551009019052864 C -7.65083796761526 1.0561739251536149 -6.66486956195588 1.1594174229166598 -5.327042837214307 1.2026649251427544 C -3.989216112472734 1.2459124273688467 -2.2473728081432833 1.021883834391827 -2.229924517061775 1.0195978283410394 L -2.226098955915562 1.0492692538165476 C -2.2420076919016445 1.0511353812049427 -3.694647904214322 1.2380746923375798 -4.966367066221942 1.2380746923375798 Z" fill="#404142" transform="matrix(1,0,0,1,0,0)" fill-rule="nonzero"></path></g></g><g><path d=" M 0.8805000000000001 0.016499999999999737 L 0.8805000000000001 0.25049999999999983 L 0.5985 0.25049999999999983 L 0.5985 1.0739999999999998 L 0.3045 1.0739999999999998 L 0.3045 0.25049999999999983 L 0.025500000000000002 0.25049999999999983 L 0.025500000000000002 0.016499999999999737 L 0.8805000000000001 0.016499999999999737 M 1.525505859375 1.0739999999999998 L 1.315505859375 0.6839999999999998 L 1.2840058593750001 0.6839999999999998 L 1.2840058593750001 1.0739999999999998 L 0.990005859375 1.0739999999999998 L 0.990005859375 0.016499999999999737 L 1.4535058593749999 0.016499999999999737 Q 1.581005859375 0.016499999999999737 1.669505859375 0.06074999999999986 Q 1.7580058593749999 0.10499999999999987 1.803005859375 0.1822499999999998 Q 1.8480058593750002 0.25949999999999984 1.8480058593750002 0.3554999999999998 Q 1.8480058593750002 0.4634999999999998 1.7887558593750001 0.5452499999999998 Q 1.7295058593750001 0.6269999999999998 1.615505859375 0.6614999999999998 L 1.854005859375 1.0739999999999998 L 1.525505859375 1.0739999999999998 M 1.2840058593750001 0.4829999999999999 L 1.4295058593749999 0.4829999999999999 Q 1.489505859375 0.4829999999999999 1.5195058593750002 0.4544999999999998 Q 1.549505859375 0.4259999999999998 1.549505859375 0.3719999999999998 Q 1.549505859375 0.32099999999999984 1.5187558593750001 0.29174999999999984 Q 1.4880058593749999 0.26249999999999984 1.4295058593749999 0.26249999999999984 L 1.2840058593750001 0.26249999999999984 L 1.2840058593750001 0.4829999999999999 M 2.27552197265625 0.2519999999999998 L 2.27552197265625 0.4244999999999999 L 2.61302197265625 0.4244999999999999 L 2.61302197265625 0.6479999999999999 L 2.27552197265625 0.6479999999999999 L 2.27552197265625 0.8384999999999998 L 2.65802197265625 0.8384999999999998 L 2.65802197265625 1.0739999999999998 L 1.98152197265625 1.0739999999999998 L 1.98152197265625 0.016499999999999737 L 2.65802197265625 0.016499999999999737 L 2.65802197265625 0.2519999999999998 L 2.27552197265625 0.2519999999999998 M 3.4289824218750002 1.0739999999999998 L 3.097482421875 0.6104999999999998 L 3.097482421875 1.0739999999999998 L 2.803482421875 1.0739999999999998 L 2.803482421875 0.016499999999999737 L 3.097482421875 0.016499999999999737 L 3.097482421875 0.4724999999999998 L 3.425982421875 0.016499999999999737 L 3.764982421875 0.016499999999999737 L 3.376482421875 0.5294999999999999 L 3.784482421875 1.0739999999999998 L 3.4289824218750002 1.0739999999999998 M 4.518002197265625 1.0739999999999998 L 4.186502197265625 0.6104999999999998 L 4.186502197265625 1.0739999999999998 L 3.892502197265625 1.0739999999999998 L 3.892502197265625 0.016499999999999737 L 4.186502197265625 0.016499999999999737 L 4.186502197265625 0.4724999999999998 L 4.515002197265625 0.016499999999999737 L 4.8540021972656255 0.016499999999999737 L 4.465502197265625 0.5294999999999999 L 4.8735021972656245 1.0739999999999998 L 4.518002197265625 1.0739999999999998 M 5.27552197265625 0.2519999999999998 L 5.27552197265625 0.4244999999999999 L 5.6130219726562505 0.4244999999999999 L 5.6130219726562505 0.6479999999999999 L 5.27552197265625 0.6479999999999999 L 5.27552197265625 0.8384999999999998 L 5.65802197265625 0.8384999999999998 L 5.65802197265625 1.0739999999999998 L 4.98152197265625 1.0739999999999998 L 4.98152197265625 0.016499999999999737 L 5.65802197265625 0.016499999999999737 L 5.65802197265625 0.2519999999999998 L 5.27552197265625 0.2519999999999998 M 6.338982421875 1.0739999999999998 L 6.128982421875 0.6839999999999998 L 6.097482421875 0.6839999999999998 L 6.097482421875 1.0739999999999998 L 5.803482421875 1.0739999999999998 L 5.803482421875 0.016499999999999737 L 6.266982421875 0.016499999999999737 Q 6.394482421875 0.016499999999999737 6.4829824218750005 0.06074999999999986 Q 6.571482421875 0.10499999999999987 6.616482421875 0.1822499999999998 Q 6.661482421875 0.25949999999999984 6.661482421875 0.3554999999999998 Q 6.661482421875 0.4634999999999998 6.602232421875 0.5452499999999998 Q 6.542982421875 0.6269999999999998 6.428982421875 0.6614999999999998 L 6.667482421875 1.0739999999999998 L 6.338982421875 1.0739999999999998 M 6.097482421875 0.4829999999999999 L 6.242982421875 0.4829999999999999 Q 6.302982421875 0.4829999999999999 6.332982421875 0.4544999999999998 Q 6.3629824218749995 0.4259999999999998 6.3629824218749995 0.3719999999999998 Q 6.3629824218749995 0.32099999999999984 6.332232421875 0.29174999999999984 Q 6.301482421875 0.26249999999999984 6.242982421875 0.26249999999999984 L 6.097482421875 0.26249999999999984 L 6.097482421875 0.4829999999999999 M 6.89099853515625 0.9967499999999998 Q 6.77249853515625 0.9089999999999998 6.76349853515625 0.7454999999999998 L 7.07699853515625 0.7454999999999998 Q 7.08149853515625 0.8009999999999998 7.10999853515625 0.8264999999999998 Q 7.13849853515625 0.8519999999999999 7.18349853515625 0.8519999999999999 Q 7.22399853515625 0.8519999999999999 7.25024853515625 0.8317499999999999 Q 7.27649853515625 0.8114999999999999 7.27649853515625 0.7754999999999999 Q 7.27649853515625 0.7289999999999999 7.23299853515625 0.7034999999999998 Q 7.18949853515625 0.6779999999999998 7.09199853515625 0.6464999999999999 Q 6.98849853515625 0.6119999999999999 6.92474853515625 0.5797499999999998 Q 6.86099853515625 0.5474999999999999 6.81374853515625 0.48524999999999985 Q 6.76649853515625 0.4229999999999998 6.76649853515625 0.3224999999999998 Q 6.76649853515625 0.2204999999999998 6.81749853515625 0.14774999999999983 Q 6.86849853515625 0.07499999999999984 6.95849853515625 0.03749999999999987 Q 7.04849853515625 -2.220446049250313e-16 7.16249853515625 -2.220446049250313e-16 Q 7.34699853515625 -2.220446049250313e-16 7.45724853515625 0.08624999999999983 Q 7.5674985351562505 0.17249999999999988 7.57499853515625 0.3284999999999998 L 7.25549853515625 0.3284999999999998 Q 7.25399853515625 0.28049999999999986 7.22624853515625 0.25649999999999984 Q 7.19849853515625 0.23249999999999982 7.15499853515625 0.23249999999999982 Q 7.12199853515625 0.23249999999999982 7.10099853515625 0.2519999999999998 Q 7.07999853515625 0.27149999999999985 7.07999853515625 0.3074999999999998 Q 7.07999853515625 0.3374999999999998 7.10324853515625 0.35924999999999985 Q 7.12649853515625 0.3809999999999998 7.16099853515625 0.3967499999999998 Q 7.19549853515625 0.41249999999999987 7.26299853515625 0.4364999999999998 Q 7.36349853515625 0.47099999999999986 7.42874853515625 0.5047499999999998 Q 7.49399853515625 0.5384999999999999 7.54124853515625 0.5992499999999998 Q 7.58849853515625 0.6599999999999998 7.58849853515625 0.7529999999999999 Q 7.58849853515625 0.8474999999999998 7.54124853515625 0.9224999999999999 Q 7.49399853515625 0.9974999999999998 7.40474853515625 1.041 Q 7.31549853515625 1.0844999999999998 7.19399853515625 1.0844999999999998 Q 7.00949853515625 1.0844999999999998 6.89099853515625 0.9967499999999998" fill="#140c15" fill-rule="nonzero"></path></g><g><path d=" M 0.42675 1.68735 Q 0.40575 1.7252249999999998 0.36225 1.7484749999999998 Q 0.31875000000000003 1.7717249999999998 0.25425000000000003 1.7717249999999998 L 0.17475000000000002 1.7717249999999998 L 0.17475000000000002 1.9607249999999998 L 0.0465 1.9607249999999998 L 0.0465 1.4342249999999999 L 0.25425000000000003 1.4342249999999999 Q 0.31725000000000003 1.4342249999999999 0.36075 1.4559749999999998 Q 0.40425 1.477725 0.426 1.5159749999999999 Q 0.44775000000000004 1.5542249999999997 0.44775000000000004 1.6037249999999998 Q 0.44775000000000004 1.6494749999999998 0.42675 1.68735 M 0.29925 1.652475 Q 0.31725000000000003 1.6352249999999997 0.31725000000000003 1.6037249999999998 Q 0.31725000000000003 1.5722249999999998 0.29925 1.5549749999999998 Q 0.28125 1.5377249999999998 0.2445 1.5377249999999998 L 0.17475000000000002 1.5377249999999998 L 0.17475000000000002 1.669725 L 0.2445 1.669725 Q 0.28125 1.669725 0.29925 1.652475 M 0.843392578125 1.8677249999999999 L 0.6468925781249999 1.8677249999999999 L 0.6153925781249999 1.9607249999999998 L 0.48114257812499994 1.9607249999999998 L 0.671642578125 1.4342249999999999 L 0.820142578125 1.4342249999999999 L 1.010642578125 1.9607249999999998 L 0.8748925781249999 1.9607249999999998 L 0.843392578125 1.8677249999999999 M 0.8103925781249999 1.7687249999999999 L 0.745142578125 1.575975 L 0.680642578125 1.7687249999999999 L 0.8103925781249999 1.7687249999999999 M 1.0815172119140624 1.5575999999999999 Q 1.1152672119140623 1.4964749999999998 1.1756422119140624 1.4623499999999998 Q 1.2360172119140624 1.4282249999999999 1.3125172119140625 1.4282249999999999 Q 1.4062672119140625 1.4282249999999999 1.4730172119140623 1.477725 Q 1.5397672119140624 1.5272249999999998 1.5622672119140624 1.6127249999999997 L 1.4212672119140624 1.6127249999999997 Q 1.4055172119140624 1.5797249999999998 1.3766422119140624 1.5624749999999998 Q 1.3477672119140625 1.5452249999999998 1.3110172119140624 1.5452249999999998 Q 1.2517672119140624 1.5452249999999998 1.2150172119140623 1.5864749999999999 Q 1.1782672119140623 1.6277249999999999 1.1782672119140623 1.6967249999999998 Q 1.1782672119140623 1.7657249999999998 1.2150172119140623 1.8069749999999998 Q 1.2517672119140624 1.8482249999999998 1.3110172119140624 1.8482249999999998 Q 1.3477672119140625 1.8482249999999998 1.3766422119140624 1.8309749999999998 Q 1.4055172119140624 1.8137249999999998 1.4212672119140624 1.780725 L 1.5622672119140624 1.780725 Q 1.5397672119140624 1.8662249999999998 1.4730172119140623 1.9153499999999999 Q 1.4062672119140625 1.9644749999999997 1.3125172119140625 1.9644749999999997 Q 1.2360172119140624 1.9644749999999997 1.1756422119140624 1.9303499999999998 Q 1.1152672119140623 1.8962249999999998 1.0815172119140624 1.8354749999999997 Q 1.0477672119140624 1.7747249999999999 1.0477672119140624 1.6967249999999998 Q 1.0477672119140624 1.6187249999999997 1.0815172119140624 1.5575999999999999 M 1.9474101562499997 1.9607249999999998 L 1.7704101562499996 1.728225 L 1.7704101562499996 1.9607249999999998 L 1.6421601562499997 1.9607249999999998 L 1.6421601562499997 1.4342249999999999 L 1.7704101562499996 1.4342249999999999 L 1.7704101562499996 1.665225 L 1.9459101562499996 1.4342249999999999 L 2.0966601562499996 1.4342249999999999 L 1.8926601562499996 1.6922249999999999 L 2.10416015625 1.9607249999999998 L 1.9474101562499997 1.9607249999999998 M 2.777657592773437 1.4342249999999999 L 2.5954075927734372 1.786725 L 2.5954075927734372 1.9607249999999998 L 2.4671575927734373 1.9607249999999998 L 2.4671575927734373 1.786725 L 2.2849075927734375 1.4342249999999999 L 2.430407592773437 1.4342249999999999 L 2.5324075927734375 1.6547249999999998 L 2.6336575927734374 1.4342249999999999 L 2.777657592773437 1.4342249999999999 M 2.943422973632812 1.9314749999999998 Q 2.8815479736328125 1.8969749999999999 2.8451729736328124 1.8350999999999997 Q 2.8087979736328124 1.7732249999999998 2.8087979736328124 1.6959749999999998 Q 2.8087979736328124 1.6187249999999997 2.8451729736328124 1.5572249999999999 Q 2.8815479736328125 1.4957249999999997 2.943422973632812 1.4612249999999998 Q 3.0052979736328123 1.4267249999999998 3.0795479736328124 1.4267249999999998 Q 3.1537979736328126 1.4267249999999998 3.2156729736328122 1.4612249999999998 Q 3.2775479736328124 1.4957249999999997 3.3131729736328124 1.5572249999999999 Q 3.3487979736328124 1.6187249999999997 3.3487979736328124 1.6959749999999998 Q 3.3487979736328124 1.7732249999999998 3.3127979736328124 1.8350999999999997 Q 3.2767979736328123 1.8969749999999999 3.2152979736328122 1.9314749999999998 Q 3.1537979736328126 1.9659749999999998 3.0795479736328124 1.9659749999999998 Q 3.0052979736328123 1.9659749999999998 2.943422973632812 1.9314749999999998 M 3.1804229736328122 1.8069749999999998 Q 3.2182979736328123 1.7649749999999997 3.2182979736328123 1.6959749999999998 Q 3.2182979736328123 1.6262249999999998 3.1804229736328122 1.5845999999999998 Q 3.142547973632812 1.5429749999999998 3.0795479736328124 1.5429749999999998 Q 3.015797973632812 1.5429749999999998 2.977922973632812 1.5842249999999998 Q 2.9400479736328125 1.6254749999999998 2.9400479736328125 1.6959749999999998 Q 2.9400479736328125 1.7657249999999998 2.977922973632812 1.8073499999999998 Q 3.015797973632812 1.8489749999999998 3.0795479736328124 1.8489749999999998 Q 3.142547973632812 1.8489749999999998 3.1804229736328122 1.8069749999999998 M 3.5471810302734372 1.4342249999999999 L 3.5471810302734372 1.7492249999999998 Q 3.5471810302734372 1.7964749999999998 3.5704310302734372 1.821975 Q 3.593681030273437 1.8474749999999998 3.638681030273437 1.8474749999999998 Q 3.6836810302734375 1.8474749999999998 3.7076810302734375 1.821975 Q 3.731681030273437 1.7964749999999998 3.731681030273437 1.7492249999999998 L 3.731681030273437 1.4342249999999999 L 3.8599310302734375 1.4342249999999999 L 3.8599310302734375 1.7484749999999998 Q 3.8599310302734375 1.8189749999999998 3.8299310302734373 1.8677249999999999 Q 3.7999310302734375 1.916475 3.7493060302734373 1.9412249999999998 Q 3.698681030273437 1.9659749999999998 3.6364310302734375 1.9659749999999998 Q 3.5741810302734374 1.9659749999999998 3.5250560302734373 1.9415999999999998 Q 3.475931030273437 1.9172249999999997 3.4474310302734374 1.8680999999999999 Q 3.4189310302734373 1.8189749999999998 3.4189310302734373 1.7484749999999998 L 3.4189310302734373 1.4342249999999999 L 3.5471810302734372 1.4342249999999999 M 4.21956884765625 1.9607249999999998 L 4.11006884765625 1.7619749999999998 L 4.07931884765625 1.7619749999999998 L 4.07931884765625 1.9607249999999998 L 3.95106884765625 1.9607249999999998 L 3.95106884765625 1.4342249999999999 L 4.16631884765625 1.4342249999999999 Q 4.22856884765625 1.4342249999999999 4.27244384765625 1.4559749999999998 Q 4.31631884765625 1.477725 4.33806884765625 1.5155999999999998 Q 4.35981884765625 1.5534749999999997 4.35981884765625 1.5999749999999997 Q 4.35981884765625 1.652475 4.33019384765625 1.6937249999999997 Q 4.30056884765625 1.734975 4.24281884765625 1.752225 L 4.36431884765625 1.9607249999999998 L 4.21956884765625 1.9607249999999998 M 4.07931884765625 1.6712249999999997 L 4.15881884765625 1.6712249999999997 Q 4.19406884765625 1.6712249999999997 4.2116938476562495 1.6539749999999998 Q 4.22931884765625 1.6367249999999998 4.22931884765625 1.605225 Q 4.22931884765625 1.5752249999999999 4.2116938476562495 1.5579749999999999 Q 4.19406884765625 1.540725 4.15881884765625 1.540725 L 4.07931884765625 1.540725 L 4.07931884765625 1.6712249999999997 M 4.993533325195312 1.7360999999999998 Q 5.021283325195312 1.7717249999999998 5.021283325195312 1.8174749999999997 Q 5.021283325195312 1.8834749999999998 4.975158325195312 1.9221 Q 4.929033325195312 1.9607249999999998 4.846533325195312 1.9607249999999998 L 4.601283325195312 1.9607249999999998 L 4.601283325195312 1.4342249999999999 L 4.838283325195312 1.4342249999999999 Q 4.9185333251953125 1.4342249999999999 4.963908325195312 1.4709749999999997 Q 5.009283325195312 1.5077249999999998 5.009283325195312 1.570725 Q 5.009283325195312 1.617225 4.984908325195312 1.6479749999999997 Q 4.960533325195312 1.6787249999999998 4.920033325195312 1.6907249999999998 Q 4.9657833251953125 1.700475 4.993533325195312 1.7360999999999998 M 4.729533325195312 1.6472249999999997 L 4.813533325195312 1.6472249999999997 Q 4.845033325195312 1.6472249999999997 4.861908325195312 1.6333499999999999 Q 4.878783325195312 1.6194749999999998 4.878783325195312 1.5924749999999999 Q 4.878783325195312 1.5654749999999997 4.861908325195312 1.5512249999999999 Q 4.845033325195312 1.5369749999999998 4.813533325195312 1.5369749999999998 L 4.729533325195312 1.5369749999999998 L 4.729533325195312 1.6472249999999997 M 4.873908325195312 1.8425999999999998 Q 4.891533325195312 1.827975 4.891533325195312 1.8002249999999997 Q 4.891533325195312 1.7724749999999998 4.873158325195312 1.7567249999999999 Q 4.854783325195312 1.7409749999999997 4.822533325195312 1.7409749999999997 L 4.729533325195312 1.7409749999999997 L 4.729533325195312 1.857225 L 4.8240333251953125 1.857225 Q 4.856283325195312 1.857225 4.873908325195312 1.8425999999999998 M 5.4244057617187496 1.8677249999999999 L 5.227905761718749 1.8677249999999999 L 5.19640576171875 1.9607249999999998 L 5.062155761718749 1.9607249999999998 L 5.252655761718749 1.4342249999999999 L 5.40115576171875 1.4342249999999999 L 5.59165576171875 1.9607249999999998 L 5.45590576171875 1.9607249999999998 L 5.4244057617187496 1.8677249999999999 M 5.391405761718749 1.7687249999999999 L 5.326155761718749 1.575975 L 5.26165576171875 1.7687249999999999 L 5.391405761718749 1.7687249999999999 M 6.000030395507812 1.6007249999999997 Q 5.985780395507812 1.5744749999999998 5.959155395507812 1.5605999999999998 Q 5.932530395507812 1.546725 5.896530395507812 1.546725 Q 5.834280395507812 1.546725 5.796780395507812 1.5876 Q 5.759280395507812 1.628475 5.759280395507812 1.6967249999999998 Q 5.759280395507812 1.769475 5.798655395507812 1.81035 Q 5.838030395507812 1.851225 5.907030395507812 1.851225 Q 5.954280395507812 1.851225 5.986905395507812 1.8272249999999999 Q 6.019530395507812 1.8032249999999999 6.0345303955078125 1.758225 L 5.8717803955078125 1.758225 L 5.8717803955078125 1.663725 L 6.150780395507812 1.663725 L 6.150780395507812 1.7829749999999998 Q 6.136530395507812 1.8309749999999998 6.102405395507812 1.8722249999999998 Q 6.068280395507812 1.9134749999999998 6.015780395507812 1.938975 Q 5.963280395507812 1.9644749999999997 5.897280395507812 1.9644749999999997 Q 5.819280395507812 1.9644749999999997 5.758155395507812 1.9303499999999998 Q 5.697030395507812 1.8962249999999998 5.662905395507812 1.8354749999999997 Q 5.628780395507812 1.7747249999999999 5.628780395507812 1.6967249999999998 Q 5.628780395507812 1.6187249999999997 5.662905395507812 1.5575999999999999 Q 5.697030395507812 1.4964749999999998 5.757780395507812 1.4623499999999998 Q 5.818530395507812 1.4282249999999999 5.896530395507812 1.4282249999999999 Q 5.991030395507812 1.4282249999999999 6.055905395507812 1.4739749999999998 Q 6.120780395507812 1.5197249999999998 6.141780395507812 1.6007249999999997 L 6.000030395507812 1.6007249999999997 M 6.310173339843749 1.9472249999999998 Q 6.264423339843749 1.9284749999999997 6.237048339843749 1.8917249999999999 Q 6.20967333984375 1.8549749999999998 6.20817333984375 1.8032249999999999 L 6.34467333984375 1.8032249999999999 Q 6.34767333984375 1.8324749999999999 6.36492333984375 1.8478499999999998 Q 6.3821733398437495 1.863225 6.40992333984375 1.863225 Q 6.43842333984375 1.863225 6.4549233398437496 1.8500999999999999 Q 6.471423339843749 1.8369749999999998 6.471423339843749 1.8137249999999998 Q 6.471423339843749 1.7942249999999997 6.45829833984375 1.781475 Q 6.44517333984375 1.7687249999999999 6.426048339843749 1.7604749999999998 Q 6.4069233398437495 1.752225 6.37167333984375 1.7417249999999997 Q 6.32067333984375 1.7259749999999998 6.2884233398437495 1.7102249999999999 Q 6.25617333984375 1.6944749999999997 6.23292333984375 1.663725 Q 6.20967333984375 1.6329749999999998 6.20967333984375 1.5834749999999997 Q 6.20967333984375 1.5099749999999998 6.262923339843749 1.4683499999999998 Q 6.31617333984375 1.4267249999999998 6.401673339843749 1.4267249999999998 Q 6.48867333984375 1.4267249999999998 6.541923339843749 1.4683499999999998 Q 6.5951733398437495 1.5099749999999998 6.59892333984375 1.5842249999999998 L 6.46017333984375 1.5842249999999998 Q 6.45867333984375 1.558725 6.44142333984375 1.5440999999999998 Q 6.424173339843749 1.5294749999999997 6.39717333984375 1.5294749999999997 Q 6.37392333984375 1.5294749999999997 6.3596733398437495 1.5418499999999997 Q 6.34542333984375 1.5542249999999997 6.34542333984375 1.5774749999999997 Q 6.34542333984375 1.6029749999999998 6.36942333984375 1.617225 Q 6.39342333984375 1.6314749999999998 6.44442333984375 1.6479749999999997 Q 6.495423339843749 1.665225 6.52729833984375 1.6809749999999999 Q 6.55917333984375 1.6967249999999998 6.58242333984375 1.7267249999999998 Q 6.60567333984375 1.7567249999999999 6.60567333984375 1.8039749999999999 Q 6.60567333984375 1.8489749999999998 6.58279833984375 1.8857249999999999 Q 6.55992333984375 1.922475 6.516423339843749 1.9442249999999999 Q 6.472923339843749 1.9659749999999998 6.41367333984375 1.9659749999999998 Q 6.355923339843749 1.9659749999999998 6.310173339843749 1.9472249999999998" fill="#161731" fill-rule="nonzero"></path></g></g><defs><clipPath id="SvgjsClipPath2832"><path d=" M -8.932634217520222 -1.0760632288284202 h 8.532634217520222 v 4.1128514576568405 h -8.532634217520222 Z"></path></clipPath><clipPath id="SvgjsClipPath2830945f240c-91cb-4762-8ed4-78c3a1f7843b"><path d=" M -8.932634217520222 -1.0760632288284202 L -0.40000000000000036 -1.0760632288284202 L -0.40000000000000036 3.0367882288284203 L -8.932634217520222 3.0367882288284203 Z"></path></clipPath></defs></svg>